<?xml version="1.0" standalone="no"?>
<!DOCTYPE svg PUBLIC "-//W3C//DTD SVG 20010904//EN"
 "http://www.w3.org/TR/2001/REC-SVG-20010904/DTD/svg10.dtd">
<svg version="1.0" xmlns="http://www.w3.org/2000/svg"
 width="175.000000pt" height="125.000000pt" viewBox="0 0 175.000000 125.000000"
 preserveAspectRatio="xMidYMid meet">

<g transform="translate(0.000000,125.000000) scale(0.100000,-0.100000)"
fill="#000000" stroke="none">
<path d="M0 1222 c0 -46 28 -138 61 -204 40 -79 128 -166 208 -206 l61 -30
-49 -36 c-200 -147 -223 -446 -47 -622 122 -121 317 -157 464 -86 l42 20 0
-24 c0 -23 2 -24 84 -24 l83 0 12 58 c20 100 94 192 190 235 69 31 179 29 251
-4 97 -46 173 -145 187 -244 l6 -45 83 0 84 0 0 43 c0 47 -24 127 -58 194 -33
63 -113 144 -186 187 l-66 38 38 27 c122 89 189 253 163 397 -50 268 -329 420
-576 314 -26 -11 -48 -20 -51 -20 -2 0 -1 14 3 30 l6 30 -90 0 -90 0 -6 -49
c-12 -98 -81 -192 -175 -238 -75 -37 -191 -39 -264 -6 -98 45 -165 130 -188
241 l-12 52 -84 0 -84 0 0 -28z m1287 -167 c135 -56 191 -204 128 -332 -89
-177 -337 -173 -431 7 -26 50 -25 153 3 205 60 113 191 165 300 120z m-497
-242 c0 -21 3 -48 6 -60 6 -22 4 -21 -48 10 l-54 32 40 27 c23 14 44 27 49 27
4 1 7 -16 7 -36z m-143 -193 c191 -110 144 -395 -73 -440 -145 -30 -284 84
-284 233 0 69 16 110 61 162 46 52 99 75 179 75 54 0 74 -5 117 -30z m336
-187 c-20 -12 -38 -21 -39 -20 -1 1 -4 25 -7 54 l-6 52 45 -32 44 -31 -37 -23z"/>
<path d="M1150 875 l-74 -75 51 0 52 0 3 -35 3 -36 70 71 69 70 -46 0 -47 0
-3 40 -3 41 -75 -76z"/>
<path d="M475 450 l-69 -70 47 0 47 0 0 -35 c0 -19 3 -35 8 -35 4 0 39 32 77
70 l69 70 -51 0 -52 0 -3 35 -3 36 -70 -71z"/>
</g>
</svg>
