<svg width="120" height="120" viewBox="0 0 120 120" fill="none" xmlns="http://www.w3.org/2000/svg">
<path d="M77.5 37.5C77.5 47.165 69.665 55 60 55C50.335 55 42.5 47.165 42.5 37.5C42.5 27.835 50.335 20 60 20C69.665 20 77.5 27.835 77.5 37.5Z" fill="black"/>
<path d="M90 82.5C90 92.165 76.5685 100 60 100C43.4315 100 30 92.165 30 82.5C30 72.835 43.4315 65 60 65C76.5685 65 90 72.835 90 82.5Z" fill="black"/>
<path d="M35.6102 25C36.4976 25 37.3638 25.0871 38.2003 25.2528C36.1625 28.8723 35 33.0504 35 37.5C35 41.8413 36.1065 45.9241 38.053 49.4818C37.2622 49.6291 36.4456 49.7063 35.6102 49.7063C28.5382 49.7063 22.8051 44.1756 22.8051 37.3532C22.8051 30.5307 28.5382 25 35.6102 25Z" fill="black"/>
<path d="M27.2367 94.9298C24.3971 91.5354 22.5 87.3701 22.5 82.5C22.5 77.7788 24.2829 73.7199 26.9789 70.3837C17.4555 71.1223 10 76.331 10 82.6469C10 89.0221 17.5865 94.2692 27.2367 94.9298Z" fill="black"/>
<path d="M84.9996 37.5C84.9996 41.8413 83.893 45.9241 81.9466 49.4818C82.7373 49.6292 83.554 49.7063 84.3893 49.7063C91.4614 49.7063 97.1945 44.1756 97.1945 37.3532C97.1945 30.5307 91.4614 25 84.3893 25C83.502 25 82.6358 25.0871 81.7993 25.2528C83.8371 28.8723 84.9996 33.0504 84.9996 37.5Z" fill="black"/>
<path d="M92.7629 94.9298C102.413 94.2692 110 89.0221 110 82.6469C110 76.331 102.544 71.1223 93.0207 70.3837C95.7167 73.7199 97.4996 77.7788 97.4996 82.5C97.4996 87.3701 95.6025 91.5354 92.7629 94.9298Z" fill="black"/>
</svg>
