<svg width="50" height="50" viewBox="0 0 50 50" fill="none" xmlns="http://www.w3.org/2000/svg">
<rect opacity="0.1" x="0.5" y="0.5" width="49" height="49" rx="9.5" stroke="white"/>
<path d="M18.5985 18.6C18.5985 18.3878 18.6828 18.1843 18.8329 18.0343C18.9829 17.8843 19.1864 17.8 19.3985 17.8H24.1985C24.4107 17.8 24.6142 17.8843 24.7642 18.0343C24.9143 18.1843 24.9985 18.3878 24.9985 18.6C24.9985 18.8121 24.9143 19.0156 24.7642 19.1657C24.6142 19.3157 24.4107 19.4 24.1985 19.4H19.3985C19.1864 19.4 18.9829 19.3157 18.8329 19.1657C18.6828 19.0156 18.5985 18.8121 18.5985 18.6ZM19.3985 21C19.1864 21 18.9829 21.0843 18.8329 21.2343C18.6828 21.3843 18.5985 21.5878 18.5985 21.8C18.5985 22.0121 18.6828 22.2156 18.8329 22.3657C18.9829 22.5157 19.1864 22.6 19.3985 22.6H22.5985C22.8107 22.6 23.0142 22.5157 23.1642 22.3657C23.3143 22.2156 23.3985 22.0121 23.3985 21.8C23.3985 21.5878 23.3143 21.3843 23.1642 21.2343C23.0142 21.0843 22.8107 21 22.5985 21H19.3985ZM21.7985 10.6C20.133 10.5994 18.496 11.0322 17.0484 11.8557C15.6007 12.6793 14.3922 13.8653 13.5416 15.2973C12.691 16.7292 12.2276 18.3578 12.1969 20.023C12.1662 21.6883 12.5693 23.3329 13.3665 24.7952L12.2305 28.7792C12.1906 28.9191 12.1895 29.0672 12.2275 29.2077C12.2654 29.3481 12.341 29.4756 12.446 29.5763C12.551 29.677 12.6814 29.7472 12.8233 29.7793C12.9653 29.8114 13.1132 29.8041 13.2513 29.7584L16.9921 28.512C18.2671 29.2487 19.6945 29.6823 21.1638 29.7792C22.6332 29.876 24.1051 29.6336 25.4658 29.0706C26.8265 28.5076 28.0394 27.6391 29.0107 26.5323C29.982 25.4256 30.6857 24.1102 31.0673 22.688C31.449 21.2657 31.4983 19.7748 31.2115 18.3304C30.9248 16.8861 30.3096 15.5271 29.4136 14.3585C28.5175 13.1899 27.3647 12.2432 26.0442 11.5914C24.7238 10.9397 23.2711 10.6005 21.7985 10.6ZM13.7985 20.2C13.7988 18.4249 14.3894 16.7004 15.4773 15.2979C16.5653 13.8953 18.0888 12.8944 19.808 12.4528C21.5272 12.0111 23.3445 12.1537 24.9737 12.8582C26.603 13.5628 27.9516 14.7891 28.8074 16.3442C29.6632 17.8993 29.9774 19.6949 29.7007 21.4482C29.424 23.2016 28.5721 24.8131 27.279 26.0291C25.9859 27.2451 24.3251 27.9965 22.5581 28.165C20.7911 28.3335 19.0182 27.9096 17.5185 26.96C17.4182 26.8964 17.305 26.8559 17.1871 26.8415C17.0692 26.8271 16.9496 26.8392 16.8369 26.8768L14.1841 27.7616L15.0001 24.912C15.0299 24.807 15.0378 24.6971 15.0235 24.589C15.0092 24.4808 14.9729 24.3768 14.9169 24.2832C14.1842 23.0472 13.7979 21.6368 13.7985 20.2ZM28.6401 32.9152L24.7969 30.9952C25.5031 30.7978 26.1767 30.5376 26.8177 30.2144L28.9985 31.3056L36.1985 27.7056V26.6C36.1985 26.1756 36.03 25.7687 35.7299 25.4686C35.4299 25.1685 35.0229 25 34.5985 25H31.9201C32.1655 24.4869 32.3703 23.9536 32.5345 23.4H34.5985C35.4472 23.4 36.2612 23.7371 36.8613 24.3372C37.4614 24.9373 37.7985 25.7513 37.7985 26.6V34.6C37.7985 35.4487 37.4614 36.2626 36.8613 36.8627C36.2612 37.4628 35.4472 37.8 34.5985 37.8H23.3985C22.5499 37.8 21.7359 37.4628 21.1358 36.8627C20.5357 36.2626 20.1985 35.4487 20.1985 34.6V31.288C20.7212 31.3626 21.2545 31.4 21.7985 31.4V34.6C21.7985 35.0243 21.9671 35.4313 22.2672 35.7313C22.5672 36.0314 22.9742 36.2 23.3985 36.2H34.5985C35.0229 36.2 35.4299 36.0314 35.7299 35.7313C36.03 35.4313 36.1985 35.0243 36.1985 34.6V29.4944L29.3569 32.9152C29.2457 32.9709 29.123 32.9999 28.9985 32.9999C28.8741 32.9999 28.7514 32.9709 28.6401 32.9152Z" fill="white"/>
</svg>
