<svg baseProfile="full" height="225" version="1.1" viewBox="0 0 225 225" width="225" xmlns="http://www.w3.org/2000/svg" xmlns:ev="http://www.w3.org/2001/xml-events" xmlns:xlink="http://www.w3.org/1999/xlink">
  <defs />
  <path d="M 69.00,167.00 L 68.00,167.00 L 67.00,167.00 L 66.00,167.00 L 65.00,167.00 L 64.00,167.00 L 63.00,167.00 L 62.00,167.00 L 61.00,167.00 L 60.00,167.00 L 59.00,166.00 L 59.00,166.00 L 58.00,166.00 L 57.00,166.00 L 56.00,166.00 L 55.00,166.00 L 54.00,166.00 L 53.00,165.00 L 53.00,165.00 L 52.00,165.00 L 51.00,165.00 L 50.00,164.00 L 50.00,164.00 L 49.00,164.00 L 48.00,164.00 L 47.00,163.00 L 47.00,163.00 L 46.00,163.00 L 45.00,162.00 L 45.00,162.00 L 44.00,162.00 L 43.00,161.00 L 43.00,161.00 L 42.00,160.00 L 42.00,160.00 L 41.00,159.00 L 41.00,159.00 L 40.00,158.00 L 40.00,158.00 L 39.00,157.00 L 39.00,156.00 L 39.00,156.00 L 38.00,155.00 L 38.00,154.00 L 38.00,153.00 L 38.00,152.00 L 38.00,151.00 L 38.00,150.00 L 38.00,149.00 L 38.00,148.00 L 38.00,147.00 L 39.00,146.00 L 39.00,146.00 L 40.00,145.00 L 40.00,145.00 L 41.00,144.00 L 41.00,144.00 L 42.00,143.00 L 42.00,143.00 L 43.00,142.00 L 44.00,142.00 L 45.00,142.00 L 46.00,142.00 L 47.00,142.00 L 48.00,142.00 L 49.00,142.00 L 50.00,142.00 L 51.00,143.00 L 51.00,143.00 L 52.00,143.00 L 53.00,144.00 L 53.00,144.00 L 54.00,144.00 L 55.00,145.00 L 55.00,145.00 L 56.00,145.00 L 57.00,145.00 L 58.00,146.00 L 58.00,146.00 L 59.00,146.00 L 60.00,146.00 L 61.00,147.00 L 61.00,147.00 L 62.00,147.00 L 63.00,147.00 L 64.00,147.00 L 65.00,147.00 L 65.00,147.00 L 66.00,146.00 L 67.00,146.00 L 67.00,146.00 L 68.00,145.00 L 68.00,145.00 L 69.00,144.00 L 69.00,144.00 L 70.00,143.00 L 70.00,143.00 L 70.00,142.00 L 70.00,141.00 L 70.00,140.00 L 71.00,139.00 L 71.00,139.00 L 71.00,138.00 L 71.00,137.00 L 71.00,136.00 L 71.00,135.00 L 71.00,134.00 L 71.00,133.00 L 71.00,132.00 L 71.00,131.00 L 71.00,130.00 L 71.00,129.00 L 71.00,128.00 L 71.00,127.00 L 71.00,126.00 L 71.00,125.00 L 71.00,124.00 L 71.00,123.00 L 71.00,122.00 L 71.00,121.00 L 71.00,120.00 L 71.00,119.00 L 71.00,118.00 L 71.00,117.00 L 71.00,116.00 L 71.00,115.00 L 71.00,114.00 L 71.00,113.00 L 71.00,112.00 L 71.00,111.00 L 71.00,110.00 L 71.00,109.00 L 71.00,108.00 L 71.00,107.00 L 71.00,106.00 L 71.00,105.00 L 71.00,104.00 L 71.00,103.00 L 71.00,102.00 L 71.00,101.00 L 71.00,100.00 L 71.00,99.00 L 71.00,98.00 L 71.00,97.00 L 71.00,96.00 L 71.00,95.00 L 71.00,94.00 L 71.00,93.00 L 71.00,92.00 L 71.00,91.00 L 71.00,90.00 L 71.00,89.00 L 71.00,88.00 L 71.00,87.00 L 71.00,86.00 L 71.00,85.00 L 71.00,84.00 L 71.00,83.00 L 71.00,82.00 L 71.00,81.00 L 71.00,80.00 L 71.00,79.00 L 71.00,78.00 L 71.00,77.00 L 71.00,76.00 L 71.00,75.00 L 71.00,74.00 L 71.00,73.00 L 71.00,72.00 L 71.00,71.00 L 71.00,70.00 L 71.00,69.00 L 71.00,68.00 L 71.00,67.00 L 71.00,66.00 L 71.00,65.00 L 71.00,64.00 L 72.00,63.00 L 72.00,63.00 L 72.00,62.00 L 73.00,61.00 L 73.00,61.00 L 74.00,60.00 L 74.00,60.00 L 75.00,59.00 L 76.00,59.00 L 76.00,59.00 L 77.00,58.00 L 78.00,58.00 L 78.00,58.00 L 79.00,57.00 L 80.00,57.00 L 81.00,57.00 L 82.00,57.00 L 83.00,57.00 L 84.00,57.00 L 85.00,58.00 L 85.00,58.00 L 86.00,58.00 L 87.00,58.00 L 88.00,59.00 L 88.00,59.00 L 89.00,60.00 L 89.00,60.00 L 90.00,61.00 L 90.00,61.00 L 91.00,62.00 L 91.00,62.00 L 92.00,63.00 L 92.00,64.00 L 92.00,65.00 L 92.00,65.00 L 93.00,66.00 L 93.00,67.00 L 93.00,68.00 L 93.00,69.00 L 93.00,70.00 L 93.00,71.00 L 93.00,72.00 L 93.00,73.00 L 93.00,74.00 L 93.00,75.00 L 93.00,76.00 L 93.00,77.00 L 93.00,78.00 L 93.00,79.00 L 93.00,80.00 L 93.00,81.00 L 93.00,82.00 L 93.00,83.00 L 93.00,84.00 L 93.00,85.00 L 93.00,86.00 L 93.00,87.00 L 93.00,88.00 L 93.00,89.00 L 93.00,90.00 L 93.00,91.00 L 93.00,92.00 L 93.00,93.00 L 93.00,94.00 L 93.00,95.00 L 93.00,96.00 L 93.00,97.00 L 93.00,98.00 L 93.00,99.00 L 93.00,100.00 L 93.00,101.00 L 93.00,102.00 L 93.00,103.00 L 93.00,104.00 L 93.00,105.00 L 93.00,106.00 L 93.00,107.00 L 93.00,108.00 L 93.00,109.00 L 93.00,110.00 L 93.00,111.00 L 93.00,112.00 L 93.00,113.00 L 93.00,114.00 L 93.00,115.00 L 93.00,116.00 L 93.00,117.00 L 93.00,118.00 L 93.00,119.00 L 93.00,120.00 L 93.00,121.00 L 93.00,122.00 L 93.00,123.00 L 93.00,124.00 L 93.00,125.00 L 93.00,126.00 L 93.00,127.00 L 93.00,128.00 L 93.00,129.00 L 93.00,130.00 L 93.00,131.00 L 93.00,132.00 L 93.00,133.00 L 93.00,134.00 L 93.00,135.00 L 93.00,136.00 L 93.00,137.00 L 93.00,138.00 L 93.00,139.00 L 93.00,140.00 L 93.00,141.00 L 93.00,142.00 L 92.00,143.00 L 92.00,143.00 L 92.00,144.00 L 92.00,145.00 L 92.00,146.00 L 92.00,147.00 L 91.00,148.00 L 91.00,148.00 L 91.00,149.00 L 91.00,150.00 L 90.00,151.00 L 90.00,151.00 L 90.00,152.00 L 90.00,153.00 L 89.00,154.00 L 89.00,154.00 L 88.00,155.00 L 88.00,155.00 L 88.00,156.00 L 87.00,157.00 L 87.00,157.00 L 86.00,158.00 L 86.00,158.00 L 85.00,159.00 L 85.00,159.00 L 84.00,160.00 L 84.00,160.00 L 83.00,161.00 L 83.00,161.00 L 82.00,162.00 L 81.00,162.00 L 81.00,162.00 L 80.00,163.00 L 80.00,163.00 L 79.00,164.00 L 78.00,164.00 L 77.00,164.00 L 77.00,164.00 L 76.00,165.00 L 75.00,165.00 L 74.00,165.00 L 74.00,165.00 L 73.00,166.00 L 72.00,166.00 L 71.00,166.00 L 70.00,166.00 L 70.00,166.00 L 69.00,167.00 Z" fill="blue"/>
  <path d="M 136.00,167.00 L 135.00,167.00 ... Z" fill="orange"/>
</svg>
