<svg width="369" height="218" viewBox="0 0 369 218" fill="none" xmlns="http://www.w3.org/2000/svg">
<path fill-rule="evenodd" clip-rule="evenodd" d="M81.5351 106.639L75.5351 107.639L73.0351 97.6387L239.035 66.6387C239.868 66.8053 241.635 67.9387 242.035 71.1387C242.435 74.3387 242.202 75.8053 242.035 76.1387L237.535 77.6387V86.1387C240.868 87.972 247.835 95.1387 249.035 109.139C250.235 123.139 251.202 131.972 251.535 134.639C252.035 136.139 253.835 139.139 257.035 139.139L260.035 138.639C255.368 132.972 247.435 119.139 253.035 109.139C258.635 99.1387 266.368 94.3053 269.535 93.1387C272.702 92.472 280.335 92.0387 285.535 95.6387C290.735 99.2387 293.368 100.472 294.035 100.639C292.202 90.3053 288.135 68.7387 286.535 65.1387C284.535 60.6387 277.035 47.6387 269.535 43.6387V40.1387L285.535 36.6387C290.368 39.1387 300.935 48.3387 304.535 65.1387C308.135 81.9387 316.035 123.139 319.535 141.639C317.535 142.639 312.135 144.039 306.535 141.639C305.535 141.139 303.435 139.839 303.035 138.639C297.702 145.139 283.135 155.239 267.535 143.639C265.535 147.472 259.335 154.939 250.535 154.139C247.702 153.972 241.435 152.639 239.035 148.639C234.702 152.639 224.535 160.639 218.535 160.639C216.535 160.639 211.635 159.939 208.035 157.139C204.535 160.972 196.035 168.139 190.035 166.139C184.035 164.139 180.868 160.639 180.035 159.139L165.035 170.139C160.368 171.305 150.035 171.939 146.035 165.139C141.035 156.639 138.035 145.139 144.035 139.139L171.535 124.139C172.702 121.972 173.835 116.339 169.035 111.139C165.368 107.805 156.435 103.139 150.035 111.139L145.535 124.139C142.702 124.305 136.935 123.739 136.535 120.139C136.135 116.539 138.368 109.639 139.535 106.639C142.035 103.805 149.035 97.5387 157.035 95.1387C165.035 92.7387 167.368 92.8053 167.535 93.1387V91.1387L95.5351 104.139L98.5351 124.139C103.368 119.305 115.235 110.839 124.035 115.639C135.035 121.639 138.535 132.139 138.035 148.639C136.368 154.139 132.435 165.539 130.035 167.139C126.202 163.972 118.535 157.439 118.535 156.639C118.535 156.318 119.1 154.971 119.867 153.141C121.495 149.258 124.035 143.197 124.035 140.139C124.035 139.712 124.044 139.281 124.053 138.848C124.139 134.713 124.229 130.402 116.535 128.139C112.368 130.305 103.935 136.439 103.535 143.639C103.135 150.839 106.702 169.972 108.535 178.639L106.035 182.139C102.035 180.305 93.9352 175.839 93.5351 172.639C93.1352 169.439 91.3685 157.972 90.5351 152.639C86.5351 155.639 76.3352 159.839 67.5351 152.639C56.5352 143.639 54.5352 141.639 52.0352 126.139L48.0352 102.639C51.5352 101.472 58.6352 99.1387 59.0352 99.1387C59.5352 99.1387 61.0352 99.6387 61.0352 100.139C61.0352 100.539 64.7018 118.972 66.5351 128.139C67.3685 134.472 70.8352 146.339 78.0351 143.139L86.5351 137.139L81.5351 106.639ZM225.035 79.6387V81.6387C221.702 82.3053 213.935 84.2387 209.535 86.6387L198.035 94.6387L195.035 109.139C196.535 110.305 199.935 112.639 201.535 112.639C203.135 112.639 203.868 111.972 204.035 111.639C204.868 107.805 207.735 99.6387 212.535 97.6387C218.535 95.1387 224.535 94.6387 228.035 100.139C230.835 104.539 231.868 110.305 232.035 112.639L204.035 127.639C201.535 129.972 197.135 136.239 199.535 142.639L201.535 149.639C198.535 150.805 192.535 150.139 192.535 138.139C191.335 125.739 189.702 115.639 189.035 112.139C188.202 107.972 184.635 98.9387 177.035 96.1387L179.035 89.1387V88.6387L225.035 79.6387ZM285.035 106.145C286.235 106.145 291.868 111.145 294.535 113.645C294.535 125.151 283.535 135.639 278.535 136.639C273.535 137.639 269.535 134.139 267.535 129.139C265.535 124.139 266.535 121.645 271.535 113.645C276.296 106.027 282.87 106.116 284.783 106.142L284.785 106.142C284.88 106.144 284.964 106.145 285.035 106.145ZM233.035 122.145L218.035 131.145C216.702 132.812 214.835 137.045 218.035 140.645C222.035 145.145 227.035 144.645 230.535 143.645C233.335 142.845 235.702 140.312 236.535 139.145L233.035 122.145ZM176.035 132.645L159.035 142.145C158.035 143.812 156.535 147.745 158.535 150.145C158.622 150.249 158.707 150.352 158.792 150.454C161.143 153.282 162.692 155.145 167.035 155.145C170.635 155.145 175.535 152.145 177.535 150.645L176.035 132.645Z" fill="#B2161D"/>
<path fill-rule="evenodd" clip-rule="evenodd" d="M345.535 164.139L53.5352 217.139C27.9353 219.94 16.5352 189.972 14.0352 174.639C12.8685 167.805 8.73524 144.439 1.53524 105.639C-5.66476 66.8387 14.2019 54.472 25.0352 53.1387L306.035 1.1392C334.835 -5.6608 349.035 19.6392 352.535 33.1392L368.035 119.639C370.435 149.239 354.035 161.639 345.535 164.139ZM316.535 20.1377L29.0349 72.1377C27.0346 72.4995 23.2014 74.2891 21.5349 75.1387C14.3349 81.1387 15.2015 95.6387 16.5349 102.139C19.8682 120.472 27.3349 161.639 30.5349 179.639C33.7349 197.639 47.8682 199.139 54.5349 197.639L338.535 145.639C340.535 145.472 345.435 143.939 349.035 139.139C352.635 134.339 351.202 117.805 350.035 110.139C348.035 99.8053 343.335 74.4387 340.535 55.6387C337.035 32.1387 331.035 25.6377 327.535 22.1377C324.735 19.3377 319.035 19.6377 316.535 20.1377Z" fill="#B2161D"/>
</svg>
