<svg width="545" height="155" viewBox="0 0 545 155" fill="none" xmlns="http://www.w3.org/2000/svg">
<path d="M22 154C28 122 48 70 110 45.5002C199.709 10.0511 230.667 56.6667 267.5 68.5C292 45.4999 360.867 -6.667 426 2.50003C493.5 12.0001 518 60 524.5 87.5" stroke="url(#paint0_linear_295_4305)" stroke-dasharray="4 4"/>
<path fill-rule="evenodd" clip-rule="evenodd" d="M21 95C9.40202 95 0 105.607 0 117.525C0 129.35 6.70248 142.203 17.1598 147.137C19.5976 148.288 22.4024 148.288 24.8402 147.137C35.2975 142.203 42 129.35 42 117.525C42 105.607 32.598 95 21 95ZM21 121.5C23.8995 121.5 26.25 119.127 26.25 116.2C26.25 113.273 23.8995 110.9 21 110.9C18.1005 110.9 15.75 113.273 15.75 116.2C15.75 119.127 18.1005 121.5 21 121.5Z" fill="#D55CFF"/>
<path fill-rule="evenodd" clip-rule="evenodd" d="M267 10C255.402 10 246 20.6068 246 32.525C246 44.3498 252.702 57.2029 263.16 62.1373C265.598 63.2876 268.402 63.2876 270.84 62.1373C281.298 57.2029 288 44.3498 288 32.525C288 20.6068 278.598 10 267 10ZM267 36.5C269.899 36.5 272.25 34.1271 272.25 31.2C272.25 28.2729 269.899 25.9 267 25.9C264.101 25.9 261.75 28.2729 261.75 31.2C261.75 34.1271 264.101 36.5 267 36.5Z" fill="#5E0088"/>
<path fill-rule="evenodd" clip-rule="evenodd" d="M524 28C512.402 28 503 38.6068 503 50.525C503 62.3498 509.702 75.2029 520.16 80.1373C522.598 81.2876 525.402 81.2876 527.84 80.1373C538.298 75.2029 545 62.3498 545 50.525C545 38.6068 535.598 28 524 28ZM524 54.5C526.899 54.5 529.25 52.1271 529.25 49.2C529.25 46.2729 526.899 43.9 524 43.9C521.101 43.9 518.75 46.2729 518.75 49.2C518.75 52.1271 521.101 54.5 524 54.5Z" fill="#D55CFF"/>
<defs>
<linearGradient id="paint0_linear_295_4305" x1="23" y1="77.4373" x2="570.5" y2="86.5" gradientUnits="userSpaceOnUse">
<stop stop-color="#460065" stop-opacity="0.8"/>
<stop offset="0.465" stop-color="#891DB7"/>
<stop offset="1" stop-color="#460065" stop-opacity="0.8"/>
</linearGradient>
</defs>
</svg>
