<svg width="50" height="50" viewBox="0 0 50 50" fill="none" xmlns="http://www.w3.org/2000/svg">
<rect opacity="0.1" x="0.5" y="0.5" width="49" height="49" rx="9.5" stroke="white"/>
<path d="M18.2552 15.6667C18.2549 16.3739 17.9736 17.052 17.4732 17.5519C16.9729 18.0517 16.2945 18.3323 15.5872 18.332C14.88 18.3316 14.2018 18.0503 13.702 17.55C13.2021 17.0497 12.9215 16.3712 12.9219 15.664C12.9222 14.9567 13.2035 14.2786 13.7039 13.7788C14.2042 13.2789 14.8826 12.9983 15.5899 12.9987C16.2971 12.999 16.9753 13.2803 17.4751 13.7806C17.9749 14.281 18.2556 14.9594 18.2552 15.6667ZM18.3352 20.3067H13.0019V37H18.3352V20.3067ZM26.7619 20.3067H21.4552V37H26.7085V28.24C26.7085 23.36 33.0685 22.9067 33.0685 28.24V37H38.3352V26.4267C38.3352 18.2 28.9219 18.5067 26.7085 22.5467L26.7619 20.3067Z" fill="white"/>
</svg>
