<svg width="56" height="40" viewBox="0 0 56 40" fill="black" xmlns="http://www.w3.org/2000/svg">
<path d="M53.9516 33.6218C53.1518 31.7453 52.0098 30.0583 50.5581 28.6071C49.1064 27.1558 47.4189 26.0142 45.5419 25.2146C45.3454 25.1314 45.1489 25.0529 44.9501 24.9766C46.0019 24.3873 46.9797 23.6478 47.8558 22.772C50.3617 20.2692 51.7394 16.9392 51.7394 13.3965C51.7394 9.85385 50.3593 6.52609 47.8558 4.02103C45.35 1.51598 42.0212 0.138679 38.4774 0.138679C36.0178 0.138679 33.6576 0.804207 31.6072 2.05211C31.5517 2.08446 31.4986 2.11683 31.4454 2.15149C31.5425 1.44666 31.591 0.730265 31.591 0.00925277V0H26.0338V0.00925277C26.0338 2.44729 25.167 4.76747 23.5788 6.62315C23.4009 6.83113 23.2136 7.03218 23.0171 7.22861C21.0707 9.17442 18.5071 10.2444 15.7955 10.2444C13.0839 10.2444 10.5203 9.17211 8.57391 7.22861C6.6275 5.2828 5.55722 2.71998 5.55722 0.00925277H0C0 2.13069 0.420731 4.19437 1.25293 6.14248C2.05276 8.01896 3.1947 9.70594 4.64641 11.1572C6.09813 12.6085 7.78565 13.7501 9.66272 14.5497C10.028 14.7045 10.3955 14.8455 10.7677 14.9726C9.58179 15.5896 8.48607 16.3938 7.51287 17.3667C5.00704 19.8694 3.62928 23.1995 3.62928 26.7422C3.62928 30.2848 5.00935 33.6126 7.51287 36.1176C10.0187 38.6227 13.3475 40 16.8912 40C19.2815 40 21.5746 39.3737 23.5812 38.1951C23.6205 38.172 23.6574 38.1512 23.6944 38.1281C23.639 38.6666 23.6112 39.2096 23.6112 39.755V39.7643H29.1684V39.755C29.1684 37.3239 30.0307 35.0107 31.6095 33.1573C31.7921 32.9447 31.984 32.7367 32.1851 32.5357C34.1315 30.5899 36.6952 29.5199 39.4067 29.5199C42.1183 29.5199 44.6819 30.5922 46.6283 32.5357C48.5747 34.4815 49.645 37.0443 49.645 39.755H55.2023C55.2023 37.6336 54.7815 35.5699 53.9493 33.6218H53.9516ZM23.5812 30.5575C22.252 32.8777 19.7507 34.4422 16.8912 34.4422C12.6424 34.4422 9.1865 30.9874 9.1865 26.7399C9.1865 22.4924 12.6424 19.0375 16.8912 19.0375C19.7531 19.0375 22.2543 20.6043 23.5812 22.9222C24.2261 24.0476 24.596 25.351 24.596 26.7375C24.596 28.1241 24.2261 29.4275 23.5812 30.5552V30.5575ZM23.5812 15.2868C23.0795 14.9934 22.5617 14.7345 22.0277 14.5104C22.5617 14.2793 23.0795 14.0205 23.5812 13.7339C24.1568 13.4057 24.7092 13.0429 25.2409 12.6455C25.227 12.895 25.2201 13.1469 25.2201 13.3988C25.2201 14.5589 25.3681 15.6982 25.657 16.7913C25.0098 16.2205 24.3163 15.7167 23.5835 15.2892L23.5812 15.2868ZM31.6095 26.0396C31.1056 26.3285 30.6178 26.6428 30.1486 26.9848C30.1486 26.9039 30.1486 26.823 30.1486 26.7399C30.1486 25.5798 30.0006 24.4428 29.714 23.3474C30.3081 23.872 30.9415 24.3388 31.6072 24.7432C32.0071 24.9858 32.4163 25.2077 32.8393 25.4041C32.4186 25.5982 32.0094 25.8085 31.6072 26.0373L31.6095 26.0396ZM38.4797 21.0989C35.4862 21.0989 32.8832 19.3818 31.6095 16.8814C31.0755 15.8345 30.775 14.6514 30.775 13.3988C30.775 12.1463 31.0755 10.9608 31.6095 9.91623C32.8832 7.4158 35.4838 5.69646 38.4797 5.69646C42.7286 5.69646 46.1845 9.15133 46.1845 13.3988C46.1845 17.6463 42.7286 21.1012 38.4797 21.1012V21.0989Z" fill="white"/>
<path d="M39.2632 9.51865L34.3879 14.3161H37.6728L37.6474 16.7888L42.5735 12.093L39.2886 12.0168L39.2632 9.51865Z" fill="white"/>
<path d="M17.6727 23.1048L12.7975 27.9023H16.0823L16.0569 30.3773L20.9807 25.6815L17.6982 25.6052L17.6727 23.1048Z" fill="white"/>
</svg>
