<svg width="110" height="110" viewBox="0 0 110 110" fill="none" xmlns="http://www.w3.org/2000/svg">
<path d="M91.8672 6.78905L85.2578 13.3984L85.6094 15.8594L85.961 18.2969L71.1485 33.1094L56.3594 47.8984L55.3985 47.5703C54.6953 47.3125 53.6875 47.2422 51.9531 47.3125C49.6797 47.3828 49.3281 47.4531 47.8516 48.1797C43.7266 50.2187 41.336 54.7422 42.0625 59.125C42.8125 63.7187 46.2813 67.1875 50.8985 67.9375C55.2578 68.664 59.8516 66.2265 61.8203 62.1015C62.5 60.6953 62.6172 60.2265 62.6875 58.1172C62.7578 56.3828 62.6875 55.4453 62.4297 54.6953L62.0781 53.664L76.8906 38.8515L91.7031 24.039L94.1875 24.3672L96.6953 24.6719L103.305 18.0625C109.258 12.1094 109.867 11.4297 109.352 11.3125C109.047 11.2422 107.008 10.9609 104.805 10.7031C102.625 10.4219 100.609 10.1172 100.352 10.0234C99.9297 9.83593 99.8125 9.34374 99.3203 5.40624C99.0156 2.96873 98.6875 0.789047 98.6172 0.57811C98.5 0.249985 97 1.6328 91.8672 6.78905Z" fill="black"/>
<path d="M45.5078 5.92188C38.1953 6.90625 30.6484 9.60156 24.7188 13.3516C-1.27344 29.7578 -7.69532 64.3047 10.6562 89.0781C12.7187 91.8672 17.7578 96.9766 20.4297 98.9922C29.9687 106.188 40.7266 109.844 52.2812 109.844C80.0547 109.844 102.93 88.3047 104.43 60.7656C104.875 52.7734 103.656 45.1797 100.797 38.0547C99.6484 35.1953 97.6094 31.2109 96.7891 30.2031L96.2734 29.5703L92.0547 33.7891L87.8359 38.0078L88.8672 40.1172C94.2812 51.3438 94.2344 64.4453 88.7266 75.4141C82.9375 86.9922 72.9531 94.6797 60.1562 97.4688C58 97.9141 57.0391 97.9844 52.4219 97.9844C46.4453 97.9844 44.5469 97.7031 39.5078 96.0156C27.6016 92.0547 18.0625 82.5156 14.0078 70.5625C8.17187 53.2188 14.6172 34.3047 29.875 24.0391C41.7109 16.0938 56.8281 14.9453 69.625 21.0156L71.7109 22L75.8828 17.8281C78.2031 15.5312 80.0781 13.5625 80.0781 13.4688C80.0781 13.1641 75.5547 10.75 73.0469 9.69531C68.2891 7.70312 63.9766 6.53125 59.1484 5.89844C55.75 5.47656 48.7656 5.47656 45.5078 5.92188Z" fill="black"/>
<path d="M48.7187 26.6406C36.6016 28.1641 26.5703 36.3672 22.7734 47.8047C21.5312 51.5312 21.1562 54.3672 21.3203 58.8438C21.4141 61.8203 21.5781 63.1328 22.0469 65.0312C23.5 70.8438 26.0781 75.3672 30.3203 79.6562C34.8672 84.25 40.6328 87.2734 46.9141 88.375C49.7031 88.8672 54.9766 88.8672 57.8359 88.375C75.0859 85.4219 86.5937 68.2891 82.8906 51.1328C82.3515 48.7422 81.3672 45.6953 80.9922 45.2734C80.8515 45.1328 79.0703 46.75 76.2344 49.5859L71.7109 54.1094L71.8281 56.7344C72.0859 62.5938 70 67.7266 65.7109 71.8047C61.4922 75.7891 55.5625 77.8047 50.1719 77.0547C41.8984 75.9062 35.5234 70.3047 33.4141 62.3594C32.7344 59.7812 32.7344 55.6094 33.4141 53.0078C35.8516 43.8672 44.1719 37.6562 53.3359 38.1719L55.4219 38.2891L60.0625 33.6484C62.6172 31.0938 64.6562 28.9609 64.6094 28.8906C64.3047 28.6328 59.9922 27.3203 58.2578 26.9922C55.8203 26.5469 51.0156 26.3594 48.7187 26.6406Z" fill="black"/>
</svg>
