<svg width="574" height="448" viewBox="0 0 574 448" fill="none" xmlns="http://www.w3.org/2000/svg">
<circle cx="224" cy="224" r="140" stroke="#1B0027" stroke-width="40"/>
<g opacity="0.4">
<mask id="path-2-inside-1_295_4299" fill="white">
<path d="M384 224C384 245.012 379.861 265.817 371.821 285.229C363.78 304.641 351.994 322.28 337.137 337.137C322.28 351.994 304.641 363.78 285.229 371.821C265.817 379.861 245.011 384 224 384V344.579C239.835 344.579 255.514 341.461 270.144 335.401C284.773 329.341 298.066 320.459 309.263 309.263C320.459 298.066 329.341 284.773 335.401 270.144C341.461 255.514 344.579 239.835 344.579 224H384Z"/>
</mask>
<path d="M384 224C384 245.012 379.861 265.817 371.821 285.229C363.78 304.641 351.994 322.28 337.137 337.137C322.28 351.994 304.641 363.78 285.229 371.821C265.817 379.861 245.011 384 224 384V344.579C239.835 344.579 255.514 341.461 270.144 335.401C284.773 329.341 298.066 320.459 309.263 309.263C320.459 298.066 329.341 284.773 335.401 270.144C341.461 255.514 344.579 239.835 344.579 224H384Z" stroke="#D55CFF" stroke-width="80" mask="url(#path-2-inside-1_295_4299)"/>
</g>
<g opacity="0.4">
<mask id="path-3-inside-2_295_4299" fill="white">
<path d="M201.516 65.5887C233.638 61.0293 266.387 66.3428 295.42 80.8245C324.452 95.3063 348.396 118.272 364.076 146.675L329.622 165.695C317.799 144.278 299.745 126.961 277.853 116.041C255.962 105.121 231.268 101.115 207.047 104.553L201.516 65.5887Z"/>
</mask>
<path d="M201.516 65.5887C233.638 61.0293 266.387 66.3428 295.42 80.8245C324.452 95.3063 348.396 118.272 364.076 146.675L329.622 165.695C317.799 144.278 299.745 126.961 277.853 116.041C255.962 105.121 231.268 101.115 207.047 104.553L201.516 65.5887Z" stroke="#3A0053" stroke-width="80" mask="url(#path-3-inside-2_295_4299)"/>
</g>
<mask id="path-4-inside-3_295_4299" fill="white">
<path d="M353.546 130.097C365.878 147.109 374.738 166.383 379.62 186.82C384.503 207.256 385.313 228.454 382.003 249.203L343.181 243.011C345.677 227.36 345.066 211.37 341.384 195.955C337.701 180.54 331.017 166.002 321.716 153.169L353.546 130.097Z"/>
</mask>
<path d="M353.546 130.097C365.878 147.109 374.738 166.383 379.62 186.82C384.503 207.256 385.313 228.454 382.003 249.203L343.181 243.011C345.677 227.36 345.066 211.37 341.384 195.955C337.701 180.54 331.017 166.002 321.716 153.169L353.546 130.097Z" stroke="#3A0053" stroke-width="80" mask="url(#path-4-inside-3_295_4299)"/>
<path d="M162.876 225.372C162.876 226.343 162.624 227.257 162.12 228.116C161.635 228.956 160.907 229.656 159.936 230.216C158.984 230.757 157.855 231.075 156.548 231.168V233.436H154.756V231.14C152.889 230.972 151.387 230.412 150.248 229.46C149.109 228.489 148.521 227.183 148.484 225.54H152.684C152.796 226.884 153.487 227.696 154.756 227.976V222.628C153.412 222.292 152.329 221.956 151.508 221.62C150.687 221.284 149.977 220.743 149.38 219.996C148.783 219.249 148.484 218.232 148.484 216.944C148.484 215.32 149.063 213.995 150.22 212.968C151.396 211.941 152.908 211.353 154.756 211.204V208.936H156.548V211.204C158.34 211.353 159.768 211.895 160.832 212.828C161.915 213.761 162.521 215.049 162.652 216.692H158.424C158.368 216.151 158.172 215.684 157.836 215.292C157.519 214.881 157.089 214.592 156.548 214.424V219.716C157.948 220.071 159.049 220.416 159.852 220.752C160.673 221.069 161.383 221.601 161.98 222.348C162.577 223.076 162.876 224.084 162.876 225.372ZM152.572 216.748C152.572 217.364 152.759 217.868 153.132 218.26C153.505 218.633 154.047 218.941 154.756 219.184V214.34C154.084 214.433 153.552 214.685 153.16 215.096C152.768 215.507 152.572 216.057 152.572 216.748ZM156.548 228.032C157.257 227.901 157.808 227.612 158.2 227.164C158.611 226.716 158.816 226.175 158.816 225.54C158.816 224.924 158.62 224.429 158.228 224.056C157.836 223.683 157.276 223.375 156.548 223.132V228.032ZM173 214.2V210.588H179.748V231H175.716V214.2H173ZM188.353 226.884L185.077 234.752H182.557L184.377 226.884H188.353ZM190.73 220.528C190.73 217.299 191.309 214.769 192.466 212.94C193.642 211.111 195.583 210.196 198.29 210.196C200.997 210.196 202.929 211.111 204.086 212.94C205.262 214.769 205.85 217.299 205.85 220.528C205.85 223.776 205.262 226.324 204.086 228.172C202.929 230.02 200.997 230.944 198.29 230.944C195.583 230.944 193.642 230.02 192.466 228.172C191.309 226.324 190.73 223.776 190.73 220.528ZM201.986 220.528C201.986 219.147 201.893 217.989 201.706 217.056C201.538 216.104 201.183 215.329 200.642 214.732C200.119 214.135 199.335 213.836 198.29 213.836C197.245 213.836 196.451 214.135 195.91 214.732C195.387 215.329 195.033 216.104 194.846 217.056C194.678 217.989 194.594 219.147 194.594 220.528C194.594 221.947 194.678 223.141 194.846 224.112C195.014 225.064 195.369 225.839 195.91 226.436C196.451 227.015 197.245 227.304 198.29 227.304C199.335 227.304 200.129 227.015 200.67 226.436C201.211 225.839 201.566 225.064 201.734 224.112C201.902 223.141 201.986 221.947 201.986 220.528ZM208.832 220.528C208.832 217.299 209.41 214.769 210.568 212.94C211.744 211.111 213.685 210.196 216.392 210.196C219.098 210.196 221.03 211.111 222.188 212.94C223.364 214.769 223.952 217.299 223.952 220.528C223.952 223.776 223.364 226.324 222.188 228.172C221.03 230.02 219.098 230.944 216.392 230.944C213.685 230.944 211.744 230.02 210.568 228.172C209.41 226.324 208.832 223.776 208.832 220.528ZM220.088 220.528C220.088 219.147 219.994 217.989 219.808 217.056C219.64 216.104 219.285 215.329 218.744 214.732C218.221 214.135 217.437 213.836 216.392 213.836C215.346 213.836 214.553 214.135 214.012 214.732C213.489 215.329 213.134 216.104 212.948 217.056C212.78 217.989 212.696 219.147 212.696 220.528C212.696 221.947 212.78 223.141 212.948 224.112C213.116 225.064 213.47 225.839 214.012 226.436C214.553 227.015 215.346 227.304 216.392 227.304C217.437 227.304 218.23 227.015 218.772 226.436C219.313 225.839 219.668 225.064 219.836 224.112C220.004 223.141 220.088 221.947 220.088 220.528ZM226.933 220.528C226.933 217.299 227.512 214.769 228.669 212.94C229.845 211.111 231.787 210.196 234.493 210.196C237.2 210.196 239.132 211.111 240.289 212.94C241.465 214.769 242.053 217.299 242.053 220.528C242.053 223.776 241.465 226.324 240.289 228.172C239.132 230.02 237.2 230.944 234.493 230.944C231.787 230.944 229.845 230.02 228.669 228.172C227.512 226.324 226.933 223.776 226.933 220.528ZM238.189 220.528C238.189 219.147 238.096 217.989 237.909 217.056C237.741 216.104 237.387 215.329 236.845 214.732C236.323 214.135 235.539 213.836 234.493 213.836C233.448 213.836 232.655 214.135 232.113 214.732C231.591 215.329 231.236 216.104 231.049 217.056C230.881 217.989 230.797 219.147 230.797 220.528C230.797 221.947 230.881 223.141 231.049 224.112C231.217 225.064 231.572 225.839 232.113 226.436C232.655 227.015 233.448 227.304 234.493 227.304C235.539 227.304 236.332 227.015 236.873 226.436C237.415 225.839 237.769 225.064 237.937 224.112C238.105 223.141 238.189 221.947 238.189 220.528ZM249.767 226.884L246.491 234.752H243.971L245.791 226.884H249.767ZM252.144 220.528C252.144 217.299 252.723 214.769 253.88 212.94C255.056 211.111 256.997 210.196 259.704 210.196C262.411 210.196 264.343 211.111 265.5 212.94C266.676 214.769 267.264 217.299 267.264 220.528C267.264 223.776 266.676 226.324 265.5 228.172C264.343 230.02 262.411 230.944 259.704 230.944C256.997 230.944 255.056 230.02 253.88 228.172C252.723 226.324 252.144 223.776 252.144 220.528ZM263.4 220.528C263.4 219.147 263.307 217.989 263.12 217.056C262.952 216.104 262.597 215.329 262.056 214.732C261.533 214.135 260.749 213.836 259.704 213.836C258.659 213.836 257.865 214.135 257.324 214.732C256.801 215.329 256.447 216.104 256.26 217.056C256.092 217.989 256.008 219.147 256.008 220.528C256.008 221.947 256.092 223.141 256.26 224.112C256.428 225.064 256.783 225.839 257.324 226.436C257.865 227.015 258.659 227.304 259.704 227.304C260.749 227.304 261.543 227.015 262.084 226.436C262.625 225.839 262.98 225.064 263.148 224.112C263.316 223.141 263.4 221.947 263.4 220.528ZM270.246 220.528C270.246 217.299 270.824 214.769 271.982 212.94C273.158 211.111 275.099 210.196 277.806 210.196C280.512 210.196 282.444 211.111 283.602 212.94C284.778 214.769 285.366 217.299 285.366 220.528C285.366 223.776 284.778 226.324 283.602 228.172C282.444 230.02 280.512 230.944 277.806 230.944C275.099 230.944 273.158 230.02 271.982 228.172C270.824 226.324 270.246 223.776 270.246 220.528ZM281.502 220.528C281.502 219.147 281.408 217.989 281.222 217.056C281.054 216.104 280.699 215.329 280.158 214.732C279.635 214.135 278.851 213.836 277.806 213.836C276.76 213.836 275.967 214.135 275.426 214.732C274.903 215.329 274.548 216.104 274.362 217.056C274.194 217.989 274.11 219.147 274.11 220.528C274.11 221.947 274.194 223.141 274.362 224.112C274.53 225.064 274.884 225.839 275.426 226.436C275.967 227.015 276.76 227.304 277.806 227.304C278.851 227.304 279.644 227.015 280.186 226.436C280.727 225.839 281.082 225.064 281.25 224.112C281.418 223.141 281.502 221.947 281.502 220.528ZM288.347 220.528C288.347 217.299 288.926 214.769 290.083 212.94C291.259 211.111 293.201 210.196 295.907 210.196C298.614 210.196 300.546 211.111 301.703 212.94C302.879 214.769 303.467 217.299 303.467 220.528C303.467 223.776 302.879 226.324 301.703 228.172C300.546 230.02 298.614 230.944 295.907 230.944C293.201 230.944 291.259 230.02 290.083 228.172C288.926 226.324 288.347 223.776 288.347 220.528ZM299.603 220.528C299.603 219.147 299.51 217.989 299.323 217.056C299.155 216.104 298.801 215.329 298.259 214.732C297.737 214.135 296.953 213.836 295.907 213.836C294.862 213.836 294.069 214.135 293.527 214.732C293.005 215.329 292.65 216.104 292.463 217.056C292.295 217.989 292.211 219.147 292.211 220.528C292.211 221.947 292.295 223.141 292.463 224.112C292.631 225.064 292.986 225.839 293.527 226.436C294.069 227.015 294.862 227.304 295.907 227.304C296.953 227.304 297.746 227.015 298.287 226.436C298.829 225.839 299.183 225.064 299.351 224.112C299.519 223.141 299.603 221.947 299.603 220.528Z" fill="#D1D1D1"/>
<rect opacity="0.3" x="474" y="119" width="100" height="30" rx="10" fill="#41324B"/>
<rect opacity="0.3" x="474" y="209" width="100" height="30" rx="10" fill="#41324B"/>
<rect opacity="0.3" x="474" y="299" width="100" height="30" rx="10" fill="#41324B"/>
</svg>
