<svg xmlns="http://www.w3.org/2000/svg" width="400" height="143.573"><g fill-rule="evenodd"><path d="M189.75 8.35c-19.844 2.064-29.03 26.068-15.745 41.145 9.301 10.554 26.9 10.906 36.5.73 16.004-16.965 2.46-44.29-20.755-41.875m6.25 3.408c15.452 2.504 23.161 20.101 14.487 33.068-9.138 13.662-29.602 12.469-37.053-2.159-7.944-15.598 5.28-33.71 22.566-30.909m176.473 46.395c-4.501 1.439-5.749 7.137-2.253 10.28.449.404.887.734.974.734.087 0-.293.418-.845.928-2.202 2.039-2.76 5.187-1.383 7.803.247.469.474.908.505.977.031.069-.062.125-.207.125-.871 0-1.219 1.394-.522 2.091l.41.409h18.363l.429-.429c.483-.483.466-1.481-.03-1.844-.181-.132-2.291-.214-6.879-.269-7.611-.09-7.883-.131-9.125-1.373-1.829-1.829-1.431-4.628.865-6.084 1.399-.887 2.409-1.001 8.89-1.001h5.85l.409-.409c.708-.708.373-1.774-.628-2.002-.209-.048-3.192-.106-6.629-.129l-6.25-.043-.917-.432c-2.471-1.164-3.375-3.163-2.278-5.035 1.181-2.015 1.646-2.117 9.729-2.117h6.564l.409-.409c.225-.225.409-.603.409-.841 0-.237-.184-.616-.409-.841l-.409-.409-7.049.009c-6.33.008-7.146.04-7.993.311m4.322 25.521c-10.452 1.219-11.386 16.557-1.167 19.171 5.55 1.419 11.11-1.763 12.189-6.978 1.519-7.339-3.646-13.052-11.022-12.193m4.029 2.85c2.894.989 4.686 3.601 4.694 6.837.02 9.353-13.874 9.868-14.475.537-.351-5.443 4.574-9.155 9.781-7.374m2.546 17.902c-.669.469-.511 1.401.447 2.652 3.725 4.86 1.023 11.483-4.911 12.037-6.556.612-10.436-6.887-6.242-12.064 1.27-1.568 1.093-2.718-.419-2.718-2.459 0-4.555 6.245-3.483 10.38 2.363 9.118 15.969 9.336 18.847.301 1.463-4.592-1.66-12.394-4.239-10.588m-5.953 21.23c-3.877.944-4.079 6.679-.275 7.785 2.88.837 5.275-.908 5.275-3.845 0-2.838-2.249-4.61-5-3.94" fill="#04bcdb"/><path d="M56.708 10.612c-1.951.052-2.375.108-2.375.309 0 .135.072.246.159.246.263 0 1.91 1.686 2.607 2.669 1.795 2.533 2.755 5.683 3.249 10.664.203 2.05.246 72.564.051 84.583-.338 20.835 2.654 24.237 20.815 23.67 4.201-.131 4.271-.151 3.383-.93-5.117-4.493-6.351-11.505-5.764-32.74a753.33 753.33 0 0 0 .234-15.511l.022-7.844.58-.985c3.35-5.682 10.248-7.519 15.741-4.191.931.565 2.853 2.55 3.577 3.696 1.87 2.962 1.837 2.248 1.337 28.884-.515 27.46 1.403 30.209 20.646 29.588l4.22-.137-.898-.948c-.493-.522-1.023-1.122-1.177-1.333-4.136-5.691-4.646-8.937-4.283-27.302.28-14.182.297-28.452.035-30.167-1.008-6.608-3.293-10.563-7.955-13.767a17.286 17.286 0 0 0-2.162-1.22l-1.5-.691c-1.728-.805-4.474-1.332-7.5-1.44-8.495-.302-13.668 2.631-20.366 11.548l-.365.487-.01-20.101c-.011-25.327-.116-26.801-2.21-31.149-2.393-4.971-6.748-6.247-20.091-5.888M296.5 11.616c2.266 1.727 4.314 4.441 5.324 7.055 1.038 2.686 1.017 2.18.969 23.068l-.043 18.989-.5-.445a59.538 59.538 0 0 0-.713-.625c-7.165-6.06-21.019-4.235-30.328 3.997-15.465 13.675-16.264 50.797-1.396 64.812 9.458 8.915 25.28 7.497 32.817-2.941l.523-.723.102.473c.839 3.863 2.275 6.616 4.032 7.73l.778.494h10.148c10.279 0 10.667-.023 9.704-.571a4.73 4.73 0 0 1-.678-.512c-.2-.184-.504-.452-.676-.597-.737-.621-2.255-2.607-2.667-3.487a6.936 6.936 0 0 0-.392-.666c-.403-.611-1.473-3.297-1.979-4.966l-.439-1.451-.093-49.25c-.102-53.89-.023-49.8-1.012-52.829-1.209-3.701-3.579-6.152-7.314-7.564-.875-.331-1.278-.349-8.834-.391l-7.916-.045.583.445M185.332 25.813c-4.89 1.6-5.462 6.923-1.249 11.615 1.601 1.782 8.132 7.905 8.432 7.905.331 0 5.564-5.082 8.36-8.117 1.051-1.143 2.096-2.95 2.355-4.073.154-.67.153-3.595-.002-3.842a1.35 1.35 0 0 1-.164-.408c-.07-.455-.98-1.771-1.338-1.934-.216-.099-.393-.236-.393-.306 0-.328-1.809-.736-3.25-.734-1.451.003-3.583.671-3.583 1.122 0 .069-.094.131-.208.137-.115.006-.544.364-.954.795l-.746.785-.945-.931c-1.728-1.702-4.535-2.597-6.315-2.014M341.75 33.17c-7.621 1.035-10.719 10.64-5.187 16.08 5.783 5.688 15.555 1.984 16.05-6.083.375-6.121-4.74-10.829-10.863-9.997M223 55.929c-.229.04-.979.153-1.667.252-4.793.688-10.898 3.27-13.958 5.902l-.708.61v6.57c0 6.021.023 6.57.277 6.57.153 0 .23-.047.172-.106-.058-.058.042-.314.222-.567.181-.254.329-.503.329-.553 0-.051.168-.34.375-.642.33-.485.608-.861 1.625-2.206.317-.42 4.196-4.286 4.523-4.509 4.883-3.325 12.159-3.373 15.43-.103 2.368 2.367 3.148 7.542 1.787 11.851-1.1 3.482-3.982 5.499-14.407 10.085-7.233 3.182-11.803 5.984-15.485 9.497-1.581 1.507-3.902 4.228-4.22 4.945-.115.261-.266.475-.336.475-.069 0-.126.107-.126.238s-.102.341-.228.467c-3.066 3.065-2.821 17.925.354 21.503.143.161.196.292.118.292-.077 0 .005.11.183.245.178.134.264.247.192.25-.374.015 2.799 3.152 3.965 3.92 9.278 6.113 22.096 3.648 28.795-5.539l.759-1.04.117.689c.501 2.965 2.303 6.218 4.063 7.334l.748.474h10.217c5.908 0 10.217-.063 10.217-.149 0-.082-.393-.398-.875-.702-.828-.523-2.431-2.048-3.248-3.09-.605-.772-1.948-3.538-2.415-4.975-.976-3.005-.942-2.151-1.095-27.584-.157-26.231-.049-24.058-1.361-27.209-2.421-5.816-9.605-11.205-17.089-12.821-1.438-.31-6.201-.556-7.25-.374m-67.339.315c-5.139.839-10.021 2.847-13.703 5.636l-1.125.852v6.551c0 7.324-.006 7.292 1.05 5.421 3.281-5.809 8.645-9.562 14.042-9.825 6.728-.327 10.282 3.092 10.263 9.871-.019 6.817-1.794 8.523-15.019 14.444-18.322 8.202-24.595 16.903-22.087 30.639 1.147 6.288 3.521 9.778 8.358 12.293 9.265 4.817 20.423 1.999 27.118-6.847.466-.617.609-.724.609-.46 0 2.197 2.452 6.669 4.21 7.677l.873.501 10.125.001c8.539.002 10.125-.034 10.125-.23 0-.127-.187-.279-.417-.336-.229-.058-.416-.179-.416-.269 0-.089-.097-.163-.215-.163-.818 0-3.849-3.906-4.875-6.28-1.648-3.818-1.503-1.018-1.726-33.387-.133-19.208-.134-19.253-.505-20.583-2.835-10.161-15.248-17.375-26.685-15.506M331 56.303c0 .083.308.365.685.627 1.922 1.332 4.089 4.324 5.005 6.914 1.019 2.881.976 1.545.983 30.299.003 14.451.072 27.211.152 28.357.355 5.065 3.048 8.846 7.434 10.438l1.089.395h8.41c4.625 0 8.409-.058 8.409-.129 0-.163-.623-.704-.81-.704-.21 0-2.685-2.731-2.967-3.274a5.32 5.32 0 0 0-.451-.726c-.743-.907-2.046-4.129-2.676-6.615l-.43-1.695V95.196c0-25.144-.039-27.075-.604-29.512-1.062-4.578-3.713-7.754-7.562-9.06C346.5 56.228 331 55.93 331 56.303m-306.25.312C12.453 58.217 5.026 66.134 5.557 77.072c.389 8.005 4.058 13.433 13.544 20.039 2.126 1.481 2.571 1.76 6.834 4.288 6.117 3.627 8.504 6.734 8.847 11.518.418 5.841-5.211 11.376-12.449 12.24-3.022.36-6.765-.405-8.916-1.824a8.627 8.627 0 0 0-.75-.448c-.32-.151-.401-.214-1.493-1.172-1.34-1.173-2.205-2.1-2.841-3.043a11.674 11.674 0 0 0-.705-.895c-.251-.289-.457-.619-.459-.733-.001-.115-.06-.209-.13-.209s-.305-.375-.523-.833c-.217-.458-.46-.833-.539-.833-.079 0-.144 2.963-.144 6.585v6.585l.959.619c8.975 5.796 20.747 6.718 30.035 2.353 16-7.518 19.761-26.961 7.59-39.231-2.662-2.683-5.051-4.405-10.5-7.565-6.794-3.94-9.51-6.211-10.979-9.183-1.964-3.972-.609-7.772 3.446-9.664 5.469-2.552 12.347.079 18.787 7.186.863.952 1.666 1.756 1.784 1.786.174.043.207-1.099.172-5.907l-.044-5.961-1.637-1.124c-5.789-3.976-13.816-5.927-20.696-5.031m268.227 6.793c3.322.885 6.585 3.981 9.246 8.775l.61 1.099v47.358l-1.09.984c-3.395 3.064-8.162 4.357-12.795 3.471-7.868-1.506-11.131-13.321-9.956-36.048.985-19.057 5.768-27.826 13.985-25.639m-63.684 57.726c-4.272 4.348-11.245 5.805-15.152 3.165-.243-.164-.502-.299-.574-.299-.146 0-1.9-1.772-1.9-1.92 0-.051-.149-.297-.332-.545-1.7-2.317-1.727-8.975-.056-14.004 1.759-5.296 7.203-11.28 13.344-14.67a69.919 69.919 0 0 0 3.627-2.206l2-1.309.043 15.363.042 15.364-1.042 1.061M164.5 104.86v15.36l-.958.932c-1.297 1.262-2.171 2.015-2.339 2.015-.077 0-.286.135-.463.3-1.732 1.608-6.366 2.617-9.273 2.018-5.273-1.087-7.473-4.389-7.25-10.88.313-9.128 5.357-16.422 15.2-21.981a54.812 54.812 0 0 0 3.25-2.023c.87-.594 1.639-1.085 1.708-1.091.069-.005.125 6.902.125 15.35" fill="#fc5c5c"/><path d="M189.75 8.35c-19.844 2.064-29.03 26.068-15.745 41.145 9.301 10.554 26.9 10.906 36.5.73 16.004-16.965 2.46-44.29-20.755-41.875m6.25 3.408c15.452 2.504 23.161 20.101 14.487 33.068-9.138 13.662-29.602 12.469-37.053-2.159-7.944-15.598 5.28-33.71 22.566-30.909m176.473 46.395c-4.501 1.439-5.749 7.137-2.253 10.28.449.404.887.734.974.734.087 0-.293.418-.845.928-2.202 2.039-2.76 5.187-1.383 7.803.247.469.474.908.505.977.031.069-.062.125-.207.125-.871 0-1.219 1.394-.522 2.091l.41.409h18.363l.429-.429c.483-.483.466-1.481-.03-1.844-.181-.132-2.291-.214-6.879-.269-7.611-.09-7.883-.131-9.125-1.373-1.829-1.829-1.431-4.628.865-6.084 1.399-.887 2.409-1.001 8.89-1.001h5.85l.409-.409c.708-.708.373-1.774-.628-2.002-.209-.048-3.192-.106-6.629-.129l-6.25-.043-.917-.432c-2.471-1.164-3.375-3.163-2.278-5.035 1.181-2.015 1.646-2.117 9.729-2.117h6.564l.409-.409c.225-.225.409-.603.409-.841 0-.237-.184-.616-.409-.841l-.409-.409-7.049.009c-6.33.008-7.146.04-7.993.311m4.322 25.521c-10.452 1.219-11.386 16.557-1.167 19.171 5.55 1.419 11.11-1.763 12.189-6.978 1.519-7.339-3.646-13.052-11.022-12.193m4.029 2.85c2.894.989 4.686 3.601 4.694 6.837.02 9.353-13.874 9.868-14.475.537-.351-5.443 4.574-9.155 9.781-7.374m2.546 17.902c-.669.469-.511 1.401.447 2.652 3.725 4.86 1.023 11.483-4.911 12.037-6.556.612-10.436-6.887-6.242-12.064 1.27-1.568 1.093-2.718-.419-2.718-2.459 0-4.555 6.245-3.483 10.38 2.363 9.118 15.969 9.336 18.847.301 1.463-4.592-1.66-12.394-4.239-10.588m-5.953 21.23c-3.877.944-4.079 6.679-.275 7.785 2.88.837 5.275-.908 5.275-3.845 0-2.838-2.249-4.61-5-3.94" fill="#04bcdb"/></g></svg>