<svg width="120" height="120" viewBox="0 0 120 120" fill="none" xmlns="http://www.w3.org/2000/svg">
<g clip-path="url(#clip0_1266_6823)">
<path fill-rule="evenodd" clip-rule="evenodd" d="M72.9457 7L118.739 33.7127L97.1297 48.4979C96.2181 49.1216 94.9735 48.8882 94.3498 47.9766C93.726 47.065 93.9594 45.8204 94.871 45.1967L111.262 33.9819L73.055 11.6945L49.6132 26.8727L90.5004 51.2102V85.9869L73.0004 96.3572V62.5079L32.0081 39.0838C31.7936 38.9612 31.6105 38.805 31.4615 38.6256L7.36427 54.2281L46.9322 76.5135L66.9189 63.6649C67.848 63.0676 69.0854 63.3366 69.6827 64.2658C70.28 65.1949 70.011 66.4323 69.0819 67.0296L47.0685 81.1811L-0.36354 54.4664L72.9457 7ZM35.1215 36.2558L77.0004 60.1866V89.3373L86.5004 83.7077V55.811L82.0486 58.5506C81.1078 59.1295 79.876 58.8362 79.2971 57.8955C78.7181 56.9547 79.0115 55.7229 79.9522 55.144L84.5427 52.319L45.8674 29.298L35.1215 36.2558ZM119.17 43.2466C119.778 44.1689 119.523 45.4093 118.601 46.0172L96.601 60.5172C95.6787 61.125 94.4383 60.8702 93.8305 59.9479C93.2226 59.0256 93.4775 57.7852 94.3997 57.1773L116.4 42.6773C117.322 42.0695 118.562 42.3244 119.17 43.2466ZM119.188 54.2735C119.781 55.2054 119.506 56.4416 118.574 57.0346L96.5741 71.0346C95.6422 71.6276 94.4061 71.3529 93.813 70.421C93.22 69.4891 93.4947 68.253 94.4266 67.6599L116.427 53.6599C117.358 53.0669 118.595 53.3416 119.188 54.2735ZM-0.74795 63.376C-0.211524 62.4104 1.00608 62.0625 1.97165 62.599L45.9535 87.0333L65.4592 75.1397C66.4022 74.5646 67.6329 74.863 68.208 75.8061C68.783 76.7491 68.4847 77.9798 67.5416 78.5549L46.0472 91.6612L0.0290785 66.0956C-0.936489 65.5592 -1.28438 64.3415 -0.74795 63.376ZM119.682 65.2639C120.28 66.1923 120.012 67.4301 119.084 68.0284L96.5838 82.5284C95.6553 83.1268 94.4176 82.8591 93.8192 81.9307C93.2209 81.0022 93.4885 79.7645 94.417 79.1661L116.917 64.6661C117.845 64.0678 119.083 64.3354 119.682 65.2639ZM-0.24331 74.3677C0.297704 73.4047 1.51695 73.0626 2.47996 73.6036L45.9511 98.0256L65.9477 85.6467C66.8868 85.0653 68.1195 85.3554 68.7009 86.2946C69.2823 87.2337 68.9923 88.4664 68.0531 89.0478L46.0497 102.669L0.520772 77.0909C-0.442232 76.5499 -0.784324 75.3307 -0.24331 74.3677ZM-0.73968 84.8612C-0.195113 83.9002 1.02539 83.5627 1.98639 84.1072L45.9553 109.023L65.9477 96.6467C66.8868 96.0653 68.1195 96.3554 68.7009 97.2946C69.2823 98.2337 68.9923 99.4664 68.0531 100.048L46.0454 113.672L0.0143392 87.5873C-0.946661 87.0427 -1.28425 85.8222 -0.73968 84.8612Z" fill="white"/>
</g>
<defs>
<clipPath id="clip0_1266_6823">
<rect width="120" height="120" fill="white"/>
</clipPath>
</defs>
</svg>
