<svg width="120" height="120" viewBox="0 0 120 120" fill="none" xmlns="http://www.w3.org/2000/svg">
<path d="M80.9062 7.89842C79.3593 8.67186 78.539 10.3594 78.8672 12.1172C79.0078 12.8672 79.6406 13.6172 82.8047 16.8281L86.6015 20.625L77.039 30.1875L67.5 39.7265L60.8906 33.1172C53.7187 25.9922 53.7187 25.9687 51.6093 26.3672C50.8359 26.5078 48.75 28.5234 33 44.25C13.7343 63.5156 14.6953 62.414 15.1172 64.6172C15.3281 65.7656 16.7343 67.1719 17.8828 67.3828C20.0625 67.8047 19.1484 68.6015 36.4922 51.2578L52.5 35.2734L59.1093 41.8828C64.8281 47.5781 65.8593 48.4922 66.6093 48.6328C68.789 49.0312 68.3203 49.4297 80.5547 37.1953L91.875 25.9219L95.6719 29.6953C99.7734 33.75 100.172 34.0078 102.094 33.6562C103.172 33.4453 104.695 31.9453 104.883 30.8906C104.953 30.4687 105 25.5703 104.953 19.9922C104.883 10.1953 104.859 9.86717 104.391 9.23436C104.133 8.8828 103.617 8.36717 103.266 8.10936C102.633 7.64061 102.305 7.61717 92.1562 7.5703C82.8047 7.49998 81.5859 7.54686 80.9062 7.89842Z" fill="black"/>
<path d="M84.7266 49.0781C83.7656 49.5 82.7812 50.6953 82.6172 51.6328C82.5469 52.0547 82.5234 65.3672 82.5469 81.2578C82.6172 109.992 82.6172 110.133 83.1094 110.766C83.3672 111.117 83.8828 111.633 84.2344 111.891C84.8672 112.359 85.1484 112.383 93.75 112.383C102.352 112.383 102.633 112.359 103.266 111.891C103.617 111.633 104.133 111.117 104.391 110.766C104.883 110.133 104.883 110.062 104.883 80.625C104.883 51.1875 104.883 51.1172 104.391 50.4844C104.133 50.1328 103.617 49.6172 103.266 49.3594C102.656 48.8906 102.305 48.8672 94.0312 48.8203C87.2344 48.7734 85.2891 48.8203 84.7266 49.0781Z" fill="black"/>
<path d="M50.9766 64.0781C50.0156 64.5 49.0312 65.6953 48.8672 66.6328C48.7969 67.0547 48.7734 76.9922 48.7969 88.7578C48.8672 109.922 48.8672 110.133 49.3594 110.766C49.6172 111.117 50.1328 111.633 50.4844 111.891C51.1172 112.359 51.3984 112.383 60 112.383C68.6016 112.383 68.8828 112.359 69.5156 111.891C69.8672 111.633 70.3828 111.117 70.6406 110.766C71.1328 110.133 71.1328 109.969 71.1328 88.125C71.1328 66.2812 71.1328 66.1172 70.6406 65.4844C70.3828 65.1328 69.8672 64.6172 69.5156 64.3594C68.9062 63.8906 68.5547 63.8672 60.2812 63.8203C53.4844 63.7734 51.5391 63.8203 50.9766 64.0781Z" fill="black"/>
<path d="M17.2266 79.0781C16.2657 79.5 15.2813 80.6953 15.1173 81.6328C15.0469 82.0547 15.0001 88.6172 15.0469 96.2578C15.1173 109.852 15.1173 110.133 15.6094 110.766C15.8673 111.117 16.3829 111.633 16.7344 111.891C17.3673 112.359 17.6485 112.383 26.2501 112.383C34.8516 112.383 35.1329 112.359 35.7657 111.891C36.1173 111.633 36.6329 111.117 36.8907 110.766C37.3829 110.133 37.3829 109.898 37.3829 95.625C37.3829 81.3516 37.3829 81.1172 36.8907 80.4844C36.6329 80.1328 36.1173 79.6172 35.7657 79.3594C35.1563 78.8906 34.8048 78.8672 26.5313 78.8203C19.7344 78.7734 17.7891 78.8203 17.2266 79.0781Z" fill="black"/>
</svg>
