<svg width="120" height="120" viewBox="0 0 120 120" fill="none" xmlns="http://www.w3.org/2000/svg">
<path d="M101.602 7.64087C91.0781 9.09399 80.5312 12.7034 69.5859 18.5393C57.8437 24.8206 48.6797 32.2971 41.7656 41.2971L40.0312 43.5706H36.2344C29.2734 43.5706 24.6562 44.9768 19.9687 48.5159C14.3437 52.7346 9.93748 60.3987 7.96873 69.3049C7.19529 72.7737 7.35936 73.969 8.67186 74.6487C9.32811 75.0002 10.1015 74.9299 19.0547 73.9456C24.3515 73.3596 29.0859 72.8206 29.5547 72.7502L30.3984 72.6331L30.5156 75.1643C30.6094 76.7581 30.7969 78.0471 31.0312 78.6331C31.5703 79.8752 39.7969 88.1956 41.1797 88.8518C41.9062 89.2034 42.8437 89.3674 44.7422 89.4612L47.3203 89.6018L47.2031 90.2112C47.1562 90.5393 46.6406 95.2502 46.0547 100.641C44.9062 111.164 44.9062 111.375 46.0312 112.149C46.7109 112.641 48.0234 112.571 50.8828 111.938C62.1094 109.383 70.5234 103.453 74.2265 95.4612C75.75 92.1331 76.2187 89.7659 76.3359 84.5627L76.4531 79.969L79.3125 77.7659C82.7578 75.1174 88.9453 69.0002 91.7344 65.5081C101.461 53.2502 109.125 36.9143 111.82 22.6174C112.453 19.3596 112.664 11.8831 112.219 9.72681C111.937 8.39087 111.867 8.29712 110.977 7.99243C110.062 7.66431 103.219 7.40649 101.602 7.64087ZM79.9219 32.5081C81.8203 33.0237 82.8984 33.6565 84.4453 35.1331C86.8125 37.3831 87.8906 39.8674 87.8906 43.1018C87.8906 46.9924 86.0156 50.3909 82.7109 52.5237C79.4765 54.5862 74.789 54.7034 71.4844 52.7815C67.9453 50.7424 65.8594 47.1565 65.8594 43.1252C65.8594 40.0315 66.7734 37.7581 68.8828 35.5549C71.8828 32.3909 75.7031 31.3362 79.9219 32.5081Z" fill="black"/>
<path d="M22.8516 79.2192C19.5 80.2974 16.6641 82.688 15.2344 85.6646C13.2656 89.7427 11.7188 97.7114 11.3203 105.68L11.1797 108.821L14.4375 108.657C18.1406 108.469 21.9141 108.024 25.6641 107.321C31.6406 106.219 35.3672 104.719 37.3828 102.68C39.5859 100.454 41.25 96.938 41.25 94.5474C41.25 93.6333 41.1797 93.5161 40.6172 93.3755C40.2188 93.2583 39.7969 93.3521 39.3984 93.5864C37.0547 95.0864 33.5156 96.0239 31.2656 95.7427C28.5469 95.4146 26.1094 93.5864 24.8672 90.9614C23.7188 88.4771 24.1641 84.7739 26.0625 81.3755C26.4609 80.6255 26.7188 79.8521 26.6719 79.5005C26.6016 78.9146 26.5078 78.8677 25.4297 78.8208C24.7734 78.7974 23.625 78.9614 22.8516 79.2192Z" fill="black"/>
</svg>
