<svg width="120" height="120" viewBox="0 0 120 120" fill="none" xmlns="http://www.w3.org/2000/svg">
<path d="M9.1875 7.96875C8.76562 8.22656 8.22656 8.76562 7.96875 9.1875C7.5 9.9375 7.5 10.4297 7.5 37.5C7.5 64.5703 7.5 65.0625 7.96875 65.8125C8.22656 66.2344 8.76562 66.7734 9.1875 67.0312C9.96094 67.5 10.4531 67.5 48.75 67.5C87.0469 67.5 87.5391 67.5 88.3125 67.0312C88.7344 66.7734 89.2734 66.2344 89.5312 65.8125C90 65.0625 90 64.5703 90 37.5C90 10.4297 90 9.9375 89.5312 9.1875C89.2734 8.76562 88.7344 8.22656 88.3125 7.96875C87.5391 7.5 87.0469 7.5 48.75 7.5C10.4531 7.5 9.96094 7.5 9.1875 7.96875ZM77.4609 19.0781C78.3281 19.4531 78.6797 20.2031 78.4219 21.2344C78.1172 22.4297 77.5078 22.5 67.5 22.5C57.4922 22.5 56.8828 22.4297 56.5781 21.2344C56.3438 20.2266 56.6719 19.4531 57.4922 19.1016C58.6172 18.6094 76.2891 18.6094 77.4609 19.0781ZM35.9766 22.8516C40.9453 23.3906 45.6797 27.2812 47.7422 32.4609C48.3516 33.9844 48.3984 34.3359 48.3984 37.5C48.3984 40.7812 48.375 40.9688 47.6484 42.7734C46.2656 46.1953 43.3594 49.3359 40.1719 50.8594C38.0391 51.8906 36.2578 52.2891 33.75 52.2891C31.2422 52.2891 29.4609 51.8906 27.3281 50.8594C24.1406 49.3359 21.2344 46.1953 19.8516 42.7734C19.125 40.9688 19.1016 40.7812 19.1016 37.5C19.1016 34.3359 19.1484 33.9844 19.7578 32.4609C21.4453 28.2188 24.5625 25.1016 28.6875 23.5547C30.2344 22.9688 33.0234 22.5 34.2188 22.6406C34.5469 22.6875 35.3438 22.7812 35.9766 22.8516ZM77.4609 30.3281C78.3281 30.7031 78.6797 31.4531 78.4219 32.4844C78.1172 33.6797 77.5078 33.75 67.5 33.75C57.4922 33.75 56.8828 33.6797 56.5781 32.4844C56.3438 31.4766 56.6719 30.7031 57.4922 30.3516C58.6172 29.8594 76.2891 29.8594 77.4609 30.3281ZM77.4609 41.5781C78.3281 41.9531 78.6797 42.7031 78.4219 43.7344C78.1172 44.9297 77.5078 45 67.5 45C57.4922 45 56.8828 44.9297 56.5781 43.7344C56.3438 42.7266 56.6719 41.9531 57.4922 41.6016C58.6172 41.1094 76.2891 41.1094 77.4609 41.5781ZM77.4609 52.8281C78.3281 53.2031 78.6797 53.9531 78.4219 54.9844C78.1172 56.1797 77.5078 56.25 67.5 56.25C57.4922 56.25 56.8828 56.1797 56.5781 54.9844C56.3438 53.9766 56.6719 53.2031 57.4922 52.8516C58.6172 52.3594 76.2891 52.3594 77.4609 52.8281Z" fill="#E292FE"/>
<path d="M93.7031 49.1484C93.6328 67.8281 93.6094 68.3438 93.1641 69.1172C92.5547 70.1484 91.7109 70.7578 90.5625 71.0156C90.0469 71.1562 74.625 71.25 54.2109 71.25H18.75V79.3828C18.75 87.1172 18.7734 87.5859 19.2188 88.3125C19.4766 88.7344 20.0156 89.2734 20.4375 89.5312C21.2109 90 21.7031 90 60 90C98.2969 90 98.7891 90 99.5625 89.5312C99.9844 89.2734 100.523 88.7344 100.781 88.3125C101.25 87.5625 101.25 87.0703 101.25 60C101.25 32.9297 101.25 32.4375 100.781 31.6875C99.9375 30.3047 99.1172 30 96.2812 30H93.7734L93.7031 49.1484ZM88.7109 75.3281C90.1406 75.9375 90.1406 77.8125 88.7109 78.4219C87.5156 78.9141 69.9844 78.9141 68.7891 78.4219C67.3828 77.8359 67.3594 75.9375 68.7422 75.3516C69.8672 74.8594 87.5391 74.8594 88.7109 75.3281Z" fill="#E292FE"/>
<path d="M104.953 71.6484C104.883 90.3281 104.859 90.8438 104.414 91.6172C103.805 92.6484 102.961 93.2578 101.812 93.5156C101.297 93.6562 85.875 93.75 65.4609 93.75H30V101.883C30 109.617 30.0234 110.086 30.4688 110.812C30.7266 111.234 31.2656 111.773 31.6875 112.031C32.4609 112.5 32.9531 112.5 71.25 112.5C109.547 112.5 110.039 112.5 110.812 112.031C111.234 111.773 111.773 111.234 112.031 110.812C112.5 110.062 112.5 109.57 112.5 82.5C112.5 55.4297 112.5 54.9375 112.031 54.1875C111.188 52.8047 110.367 52.5 107.531 52.5H105.023L104.953 71.6484ZM99.9609 97.8281C101.391 98.4375 101.391 100.312 99.9609 100.922C98.7656 101.414 81.2344 101.414 80.0391 100.922C78.6328 100.336 78.6094 98.4375 79.9922 97.8516C81.1172 97.3594 98.7891 97.3594 99.9609 97.8281Z" fill="#E292FE"/>
</svg>
