<svg width="120" height="120" viewBox="0 0 120 120" fill="none" xmlns="http://www.w3.org/2000/svg">
<g clip-path="url(#clip0_269_182)">
<path d="M52.5008 0.257641C45.5633 1.05452 38.532 3.18733 32.1102 6.44514C22.8524 11.1561 14.8836 18.328 9.14141 27.0936C4.47735 34.1951 0.516414 45.0467 0.0711017 51.8201C-0.0460858 53.6248 0.000789256 53.953 0.422664 54.6561C0.680477 55.078 1.26641 55.6405 1.68829 55.8983C2.41485 56.3436 2.95391 56.367 9.79766 56.4373C18.3055 56.5311 19.2899 56.4139 20.368 55.1717C20.7664 54.7264 21.1414 54.1405 21.2117 53.8358C22.4774 48.117 23.157 46.0311 24.8914 42.5389C30.2117 31.9451 39.7977 24.5623 51.5164 22.0076C55.0555 21.2342 61.782 21.117 65.532 21.7498C70.6648 22.6405 75.3758 24.4686 80.0398 27.3983C84.3055 30.0701 84.0242 30.1873 91.0086 23.2498C94.0789 20.203 96.7508 17.4139 96.9383 17.0623C97.3836 16.2186 97.3602 14.4608 96.9148 13.5701C96.2352 12.2811 90.868 8.64827 86.0398 6.2342C79.782 3.07014 73.8992 1.28889 66.7273 0.351391C63.7039 -0.0236092 55.5711 -0.0939217 52.5008 0.257641Z" fill="#E292FE"/>
<path d="M102.775 23.1796C102.4 23.414 99.6344 26.0859 96.6344 29.0859C89.8376 35.9531 89.9313 35.6952 92.6032 39.9609C95.2516 44.1562 96.9626 48.3046 98.0173 53.0859C98.4626 55.1249 98.5329 56.1093 98.5329 60.7031C98.5329 65.2734 98.4626 66.2812 98.0173 68.3671C95.4391 80.2265 88.1032 89.7656 77.4626 95.1093C73.9704 96.8437 71.8844 97.5234 66.1657 98.789C65.861 98.8593 65.2751 99.2343 64.8298 99.6327C63.5876 100.711 63.4704 101.695 63.5641 110.203C63.6344 117.258 63.6579 117.562 64.1501 118.359C65.0173 119.766 65.8376 120.094 68.1813 119.93C72.9626 119.625 80.6735 117.305 86.6032 114.398C92.7204 111.375 97.8298 107.742 102.541 103.008C112.267 93.2577 118.197 80.9062 119.767 67.0781C120.189 63.4218 119.955 54.539 119.345 50.9765C118.291 44.9062 116.486 39.3984 113.861 34.1249C111.377 29.1562 107.744 23.789 106.431 23.0859C105.447 22.5937 103.642 22.6405 102.775 23.1796Z" fill="#E292FE"/>
<path d="M54.5156 35.8359C54.1406 36.0938 53.625 36.6328 53.3438 37.0781C52.8516 37.8516 52.8516 37.9453 52.8516 56.4844C52.8516 74.6953 52.8516 75.1406 53.3203 75.8906C53.5781 76.3125 54.1641 76.8984 54.6094 77.1797C55.3828 77.6719 55.7109 77.6953 60 77.6953C64.3125 77.6953 64.6172 77.6719 65.4141 77.1797C67.1484 76.0781 67.0547 77.3438 66.9844 56.1797L66.9141 37.2422L65.9297 36.3047L64.9453 35.3906H60.0703C55.6641 35.3906 55.125 35.4375 54.5156 35.8359Z" fill="#E292FE"/>
<path d="M33.4219 42.8672C33.0469 43.125 32.5312 43.6641 32.25 44.1094C31.7578 44.8594 31.7578 45.0234 31.7578 60C31.7578 74.6953 31.7812 75.1406 32.2266 75.8906C32.4844 76.3125 33.0703 76.8984 33.5156 77.1797C34.2891 77.6719 34.6172 77.6953 38.9062 77.6953C43.2188 77.6953 43.5234 77.6719 44.3203 77.1797C46.0547 76.1016 45.9609 76.9453 45.8906 59.7188L45.8203 44.2969L44.9297 43.4297L44.0625 42.5391L39.0703 42.4688C34.4766 42.4219 34.0547 42.4453 33.4219 42.8672Z" fill="#E292FE"/>
<path d="M75.6094 56.9297C75.2344 57.1875 74.7187 57.7266 74.4375 58.1719C73.9687 58.9219 73.9453 59.2031 73.9453 67.0312C73.9453 74.6953 73.9687 75.1641 74.4141 75.8906C74.6719 76.3125 75.2578 76.8984 75.7031 77.1797C76.4766 77.6719 76.8047 77.6953 81.0937 77.6953C85.3828 77.6953 85.7109 77.6719 86.4844 77.1797C88.1484 76.1484 88.125 76.2422 88.125 66.9375V58.5703L87.2109 57.5859L86.2734 56.6016L81.2812 56.5312C76.6641 56.4844 76.2422 56.5078 75.6094 56.9297Z" fill="#E292FE"/>
<path d="M1.54735 64.6639C0.187975 65.578 -0.0464002 66.2108 0.0942248 68.6718C0.398912 73.7343 2.71922 81.4686 5.83641 87.6561C8.78954 93.5389 12.1411 98.1561 16.9927 103.008C25.7583 111.797 36.7739 117.539 48.8677 119.625C52.852 120.328 54.2817 120.07 55.3364 118.453C55.7583 117.82 55.7817 117.211 55.7817 109.453C55.7817 98.9061 55.9927 99.3749 51.0473 98.2733C39.3286 95.6718 29.6255 87.9139 24.4927 77.0389C23.063 74.0155 22.5239 72.3749 21.6802 68.7889C21.0005 65.9296 20.7192 65.3436 19.6177 64.6874C18.9145 64.2421 18.3755 64.2186 10.5473 64.2186C2.78954 64.2186 2.18016 64.2421 1.54735 64.6639Z" fill="#E292FE"/>
</g>
<defs>
<clipPath id="clip0_269_182">
<rect width="120" height="120" fill="white"/>
</clipPath>
</defs>
</svg>
