<svg width="120" height="120" viewBox="0 0 120 120" fill="none" xmlns="http://www.w3.org/2000/svg">
<g clip-path="url(#clip0_269_198)">
<path d="M53.4375 14.2265C49.3828 14.6249 43.2422 16.078 38.9062 17.6718C33.0703 19.8046 26.9062 23.3437 21.9609 27.4218L19.875 29.1327L27.4688 36.7265C32.625 41.8827 35.1562 44.2499 35.3906 44.1562C36.7969 43.6171 40.6172 42.8437 42.9375 42.6093C45.0703 42.3984 46.3359 42.3984 48.4688 42.6093C50.8359 42.8437 54.6328 43.6405 56.0859 44.1796C56.4609 44.3437 56.4844 43.5234 56.4844 29.203V14.0624L55.3828 14.1093C54.75 14.1093 53.8828 14.1796 53.4375 14.2265Z" fill="#E292FE"/>
<path d="M63.5156 30.9844V47.9531L65.5078 49.5234C66.5859 50.3906 68.0391 51.75 68.7188 52.5C69.3984 53.2734 70.0312 53.9062 70.1484 53.9062C70.2891 53.9062 95.3906 31.1484 97.9453 28.7109L98.7188 27.9609L97.125 26.6719C88.3359 19.6875 76.4766 14.9766 65.6953 14.1562L63.5156 13.9922V30.9844Z" fill="#E292FE"/>
<path d="M83.5547 50.9062C71.836 61.6172 62.2032 70.4766 62.1563 70.5703C62.1094 70.6641 62.4844 70.8281 62.9766 70.8984C68.3672 71.8125 73.0079 74.4844 76.2657 78.5625C78.586 81.4687 80.086 84.8672 80.7422 88.6406C80.8126 89.1328 80.9532 89.5312 81.0469 89.5078C81.1407 89.5078 89.9063 79.8984 100.547 68.1562L119.883 46.8281L119.953 39.1172L120 31.4062L112.453 31.4297H104.883L83.5547 50.9062Z" fill="#E292FE"/>
<path d="M14.0156 35.2031C6.42188 44.2266 1.52344 55.6641 0.257812 67.3125C0.117188 68.5781 0 71.3906 0 73.5938V77.5781H7.00781H13.9922L14.1562 74.2266C14.4375 68.5781 15.2812 64.7344 17.2031 60.6094C19.2891 56.0625 23.1562 51.4219 27.375 48.4219C28.0312 47.9297 28.5938 47.4609 28.5938 47.3672C28.5938 47.1797 15.3984 33.9844 15.2109 33.9844C15.1172 33.9844 14.6016 34.5469 14.0156 35.2031Z" fill="#E292FE"/>
<path d="M109.919 67.7578C105.466 72.6797 101.693 76.875 101.505 77.1328C101.201 77.5781 101.388 77.5781 110.622 77.5781H120.068L119.927 72.2344C119.857 69.1172 119.646 66.0469 119.435 64.8047C118.872 61.5469 118.263 58.8281 118.122 58.8516C118.052 58.8516 114.372 62.8594 109.919 67.7578Z" fill="#E292FE"/>
<path d="M56.1328 78.0234C53.6953 78.7266 51.7969 79.8516 50.0391 81.6562C47.2266 84.4922 45.9375 87.6328 45.9375 91.6406C45.9375 95.7656 47.1562 98.7188 50.0391 101.602C52.9453 104.531 55.8516 105.727 60 105.727C64.1484 105.727 67.0547 104.531 69.9609 101.602C72 99.5859 73.0312 97.8047 73.6875 95.2266C74.1797 93.375 74.1562 89.8828 73.6875 88.0312C72.4688 83.2734 68.3672 79.1719 63.6094 77.9531C61.6641 77.4609 57.9609 77.4844 56.1328 78.0234Z" fill="#E292FE"/>
</g>
<defs>
<clipPath id="clip0_269_198">
<rect width="120" height="120" fill="white"/>
</clipPath>
</defs>
</svg>
