<svg width="120" height="120" viewBox="0 0 120 120" fill="none" xmlns="http://www.w3.org/2000/svg">
<path d="M6.1875 0.914062C4.80469 1.54687 3.63281 2.67187 2.95312 4.03125C2.46094 5.01562 2.34375 5.57812 2.34375 7.00781C2.36719 9.82031 3.53906 11.8125 5.90625 12.9844L7.125 13.5938H60H112.875L114.094 12.9844C116.461 11.8125 117.656 9.82031 117.656 7.03125C117.656 4.24219 116.461 2.25 114.094 1.07812L112.875 0.468749H60.0234C9.11719 0.468749 7.10156 0.492187 6.1875 0.914062Z" fill="#E292FE"/>
<path d="M11.7188 53.4375V86.7188H9.82031C7.92188 86.7188 7.92188 86.7188 7.00781 87.6328C6.14063 88.4766 6.09375 88.6172 6.09375 89.9766C6.09375 91.2891 6.16406 91.5 6.89063 92.2969L7.6875 93.1641L32.2031 93.2344L56.7188 93.2812V96.7734V100.266L55.4063 100.898C53.6719 101.742 52.0078 103.477 51.0469 105.398C50.2969 106.922 50.2734 107.086 50.2734 109.688C50.2734 112.359 50.2969 112.43 51.1641 114.188C54.7734 121.5 65.2266 121.5 68.8359 114.188C69.7031 112.43 69.7266 112.359 69.7266 109.688C69.7266 107.086 69.7031 106.922 68.9531 105.398C67.9922 103.477 66.3281 101.742 64.5938 100.898L63.2813 100.266V96.7734V93.2812H87.5156H111.727L112.523 92.7422C113.648 91.9922 113.93 91.2891 113.836 89.6953C113.766 88.5469 113.648 88.2188 113.016 87.5859C112.289 86.8828 112.148 86.8359 110.273 86.7422L108.281 86.6719V53.4141V20.1562H60H11.7188V53.4375ZM62.4609 26.9531C63.0469 27.0938 63.6797 27.4688 64.1719 27.9844C64.8047 28.6875 64.9219 28.9922 64.9219 30C64.9219 31.0078 64.8047 31.3125 64.1719 32.0156C63.6797 32.5312 63.0469 32.9062 62.4609 33.0469C61.2188 33.3281 28.7813 33.3281 27.5391 33.0469C26.9531 32.9062 26.3203 32.5312 25.8516 32.0156C25.1953 31.3125 25.0781 31.0078 25.0781 30C25.0781 28.9922 25.1953 28.6875 25.8516 27.9844C26.2734 27.5156 26.9531 27.0703 27.4219 26.9531C28.5703 26.6953 61.3125 26.6719 62.4609 26.9531ZM62.4609 40.0781C63.0469 40.2188 63.6797 40.5938 64.1719 41.1094C64.8047 41.8125 64.9219 42.1172 64.9219 43.125C64.9219 44.1328 64.8047 44.4375 64.1719 45.1406C63.6797 45.6562 63.0469 46.0312 62.4609 46.1719C61.2188 46.4531 28.7813 46.4531 27.5391 46.1719C26.9531 46.0312 26.3203 45.6562 25.8516 45.1406C25.1953 44.4375 25.0781 44.1328 25.0781 43.125C25.0781 42.1172 25.1953 41.8125 25.8516 41.1094C26.2734 40.6406 26.9531 40.1953 27.4219 40.0781C28.5703 39.8203 61.3125 39.7969 62.4609 40.0781ZM93.4219 51.7031C95.0156 52.875 95.0391 52.9453 95.1094 58.8984C95.2266 65.9531 95.1328 66.6328 93.9844 67.7812C93.1875 68.5781 92.9766 68.6719 91.8984 68.6719C90.8672 68.6719 90.5859 68.5547 89.8594 67.8984C88.8984 67.0312 88.6172 66.0234 88.5938 63.6328V61.9922L79.6172 70.9688L70.6406 79.9219H69.4688C68.7891 79.9219 68.0859 79.7578 67.7813 79.5469C67.5 79.3594 65.6484 77.2734 63.7031 74.9297C61.7578 72.5859 60.0469 70.5234 59.8828 70.3594C59.6719 70.125 58.5 71.0391 54.2813 74.6484C51.3516 77.1562 48.7266 79.3828 48.4453 79.5703C48.1641 79.7578 47.4375 79.9219 46.8047 79.9219C45.7734 79.9219 45.5391 79.8281 44.7422 79.0078C43.9219 78.2109 43.8281 77.9766 43.8281 76.9453C43.8281 76.2891 43.9922 75.5859 44.2031 75.2812C44.5313 74.8125 56.3203 64.5469 58.2188 63.0938C59.0391 62.4609 60.7969 62.3906 61.5938 62.9531C61.8984 63.1641 63.7734 65.2969 65.7891 67.6875C67.7813 70.1016 69.4922 72.0938 69.5859 72.1406C69.6563 72.1641 73.0078 68.9297 76.9922 64.9219L84.2578 57.6562H82.6172C80.2266 57.6328 79.2188 57.3516 78.3516 56.3906C77.6953 55.6875 77.5781 55.3828 77.5781 54.375C77.5781 53.3672 77.6953 53.0625 78.3516 52.3594C78.7734 51.8906 79.4766 51.4453 79.9219 51.3281C80.3672 51.2109 83.4609 51.1406 86.7656 51.1641C92.4375 51.2109 92.8125 51.2344 93.4219 51.7031ZM47.4609 53.2031C48.0469 53.3438 48.6797 53.7188 49.1719 54.2344C49.8047 54.9375 49.9219 55.2422 49.9219 56.25C49.9219 57.2578 49.8047 57.5625 49.1719 58.2656C48.6797 58.7812 48.0469 59.1562 47.4609 59.2969C46.2422 59.5781 28.7578 59.5781 27.5391 59.2969C26.9531 59.1562 26.3203 58.7812 25.8516 58.2656C25.1953 57.5625 25.0781 57.2578 25.0781 56.25C25.0781 55.2422 25.1953 54.9375 25.8516 54.2344C26.2734 53.7656 26.9531 53.3203 27.4219 53.2031C28.5703 52.9453 46.3125 52.9219 47.4609 53.2031ZM62.1328 107.555C62.9531 108.375 63.0469 108.586 63.0469 109.688C63.0469 110.789 62.9531 111 62.1328 111.82C61.3125 112.641 61.1016 112.734 60 112.734C58.8984 112.734 58.6875 112.641 57.8672 111.82C57.0469 111 56.9531 110.789 56.9531 109.688C56.9531 108.586 57.0469 108.375 57.8672 107.555C58.6875 106.734 58.8984 106.641 60 106.641C61.1016 106.641 61.3125 106.734 62.1328 107.555Z" fill="#E292FE"/>
</svg>
