<svg width="120" height="120" viewBox="0 0 120 120" fill="none" xmlns="http://www.w3.org/2000/svg">
<path d="M101.601 7.64062C91.078 9.09375 80.5311 12.7031 69.5858 18.5391C57.8436 24.8203 48.6795 32.2969 41.7655 41.2969L40.0311 43.5703H36.2342C29.2733 43.5703 24.6561 44.9766 19.9686 48.5156C14.3436 52.7344 9.93736 60.3984 7.96861 69.3047C7.19517 72.7734 7.35923 73.9688 8.67173 74.6484C9.32798 75 10.1014 74.9297 19.0545 73.9453C24.3514 73.3594 29.0858 72.8203 29.5545 72.75L30.3983 72.6328L30.5155 75.1641C30.6092 76.7578 30.7967 78.0469 31.0311 78.6328C31.5702 79.875 39.7967 88.1953 41.1795 88.8516C41.9061 89.2031 42.8436 89.3672 44.742 89.4609L47.3202 89.6016L47.203 90.2109C47.1561 90.5391 46.6405 95.25 46.0545 100.641C44.9061 111.164 44.9061 111.375 46.0311 112.148C46.7108 112.641 48.0233 112.57 50.8827 111.938C62.1092 109.383 70.5233 103.453 74.2264 95.4609C75.7499 92.1328 76.2186 89.7656 76.3358 84.5625L76.453 79.9688L79.3124 77.7656C82.7577 75.1172 88.9452 69 91.7342 65.5078C101.461 53.25 109.125 36.9141 111.82 22.6172C112.453 19.3594 112.664 11.8828 112.219 9.72656C111.937 8.39062 111.867 8.29688 110.976 7.99219C110.062 7.66406 103.219 7.40625 101.601 7.64062ZM79.9217 32.5078C81.8202 33.0234 82.8983 33.6562 84.4452 35.1328C86.8124 37.3828 87.8905 39.8672 87.8905 43.1016C87.8905 46.9922 86.0155 50.3906 82.7108 52.5234C79.4764 54.5859 74.7889 54.7031 71.4842 52.7812C67.9452 50.7422 65.8592 47.1562 65.8592 43.125C65.8592 40.0312 66.7733 37.7578 68.8827 35.5547C71.8827 32.3906 75.703 31.3359 79.9217 32.5078Z" fill="#E292FE"/>
<path d="M22.8516 79.2188C19.5 80.2969 16.6641 82.6875 15.2344 85.6641C13.2656 89.7422 11.7188 97.7109 11.3203 105.68L11.1797 108.82L14.4375 108.656C18.1406 108.469 21.9141 108.023 25.6641 107.32C31.6406 106.219 35.3672 104.719 37.3828 102.68C39.5859 100.453 41.25 96.9375 41.25 94.5469C41.25 93.6328 41.1797 93.5156 40.6172 93.375C40.2188 93.2578 39.7969 93.3516 39.3984 93.5859C37.0547 95.0859 33.5156 96.0234 31.2656 95.7422C28.5469 95.4141 26.1094 93.5859 24.8672 90.9609C23.7188 88.4766 24.1641 84.7734 26.0625 81.375C26.4609 80.625 26.7188 79.8516 26.6719 79.5C26.6016 78.9141 26.5078 78.8672 25.4297 78.8203C24.7734 78.7969 23.625 78.9609 22.8516 79.2188Z" fill="#E292FE"/>
</svg>
