<svg width="100" height="100" viewBox="0 0 100 100" fill="none" xmlns="http://www.w3.org/2000/svg">
<g clip-path="url(#clip0_267_1172)">
<path d="M42.4414 0.390617C37.4609 1.15234 32.8516 2.61718 28.0273 4.98046C12.8516 12.4023 2.51953 26.8945 0.292969 43.8086C-0.0976562 46.8359 -0.0976562 52.9687 0.292969 55.9961C1.52344 65.3906 5.13672 73.7695 11.1719 81.2695L12.7539 83.2422L21.1133 74.8828C25.7227 70.2734 29.4922 66.4453 29.4922 66.3672C29.4922 66.2891 29.0039 65.5078 28.418 64.6289C25.2734 60.0391 23.8281 55.4102 23.8281 50.0195C23.8281 46.8359 24.1797 44.6289 25.0977 41.8555C28.1055 32.8711 35.5273 26.3281 44.9219 24.4141C45.9766 24.1992 46.8945 24.0234 46.9531 24.0234C47.0117 24.0234 47.0703 18.6133 47.0703 12.0117V-7.62939e-06L45.957 0.0195236C45.332 0.0195236 43.75 0.195305 42.4414 0.390617Z" fill="#E292FE"/>
<path d="M52.9297 12.0117V24.0039L53.6719 24.1406C57.0508 24.7266 59.5898 25.5469 62.1094 26.875C69.1602 30.6055 74.2773 37.5586 75.7031 45.3516L76.0352 47.0703H88.0469H100.059L99.9414 45.3516C99.6484 41.3867 98.3984 36.0352 96.7578 31.9141C92.9492 22.207 86.3086 14.0039 77.5391 8.16406C74.7266 6.28906 70.2344 3.98438 67.168 2.85156C63.3203 1.42578 56.6992 0 53.9648 0H52.9297V12.0117Z" fill="#E292FE"/>
<path d="M47.0703 32.6172V35.7227L45.957 36.2695C44.3945 37.0312 42.793 38.6719 41.9727 40.332C41.3281 41.6602 41.3086 41.7578 41.3086 44.1406C41.3086 46.4844 41.3281 46.6211 41.9336 47.8711C43.418 50.918 45.7812 52.5391 49.2969 52.9492C50.1367 53.0469 51.0938 53.2812 51.4062 53.4766C53.7891 54.8828 52.7734 58.5938 50 58.5938C48.6523 58.5938 47.2656 57.4414 47.2656 56.2891C47.2656 55.8594 47.2461 55.8594 44.2188 55.8594H41.1523L41.25 57.0898C41.4648 59.6875 43.4766 62.5195 45.957 63.7305L47.0703 64.2773V67.3828V70.5078H50H52.9297V67.4023V64.3164L53.9062 63.8086C56.1328 62.6562 57.6562 60.8984 58.3984 58.6719C58.7695 57.5977 58.8281 57.0703 58.75 55.4102C58.6914 53.6328 58.5938 53.2617 58.0078 52.0508C56.6406 49.2188 54.082 47.4219 50.8398 47.0508C49.8047 46.9336 48.9062 46.7188 48.5547 46.4844C46.2109 45.0391 47.2461 41.4062 50 41.4062C51.3477 41.4062 52.7344 42.5586 52.7344 43.6914C52.7344 44.1406 52.7539 44.1406 55.7812 44.1406H58.8477L58.75 42.9102C58.5352 40.3516 56.5234 37.5 54.043 36.25L52.9297 35.7031V32.5977V29.4922H50H47.0703V32.6172Z" fill="#E292FE"/>
<path d="M75.9766 53.0469C75.9766 53.1055 75.8008 54.0235 75.5859 55.0782C74.5312 60.2735 72.0703 64.8633 68.3594 68.5547C65.3711 71.543 62.0703 73.5938 58.1445 74.9024C55.3711 75.8203 53.1055 76.1914 50 76.1914C44.6484 76.1914 39.9414 74.7071 35.3711 71.5821C34.4922 70.9961 33.7109 70.5078 33.6328 70.5078C33.5547 70.5078 29.7266 74.2774 25.1172 78.8867L16.7578 87.2461L18.7305 88.8282C25.8203 94.5313 33.6914 98.0469 42.6758 99.5508C45.3711 100 54.1992 100.059 56.8359 99.6485C62.8906 98.711 67.5391 97.2266 72.793 94.5508C83.6133 89.043 92.2461 79.5508 96.7578 68.1641C98.3594 64.1211 99.6484 58.5938 99.9414 54.6289L100.059 52.9297H88.0078C81.3867 52.9297 75.9766 52.9883 75.9766 53.0469Z" fill="#E292FE"/>
</g>
<defs>
<clipPath id="clip0_267_1172">
<rect width="100" height="100" fill="white"/>
</clipPath>
</defs>
</svg>
