<svg width="100" height="100" viewBox="0 0 100 100" fill="none" xmlns="http://www.w3.org/2000/svg">
<path d="M40.1244 6.17674C40.2878 6.17704 40.4512 6.17734 40.6196 6.17765C45.318 6.1982 50.1441 6.9162 54.3647 9.13237C55.0112 9.43514 55.5149 9.43364 56.2255 9.43602C57.5586 9.50618 58.2512 9.80083 59.1796 10.7422C59.2896 10.8537 59.3996 10.9652 59.513 11.0802C59.6165 11.1861 59.72 11.2921 59.8266 11.4014C60.299 11.9823 60.299 11.9823 60.9374 11.914C60.9447 11.688 60.952 11.4619 60.9595 11.2289C60.9724 10.9283 60.9853 10.6277 60.9984 10.3271C61.0028 10.1786 61.0073 10.03 61.0118 9.877C61.0705 8.63816 61.3669 7.81758 62.2069 6.87254C62.9114 6.25614 63.4325 6.22485 64.3362 6.21851C64.552 6.21664 64.7678 6.21476 64.9901 6.21283C65.2232 6.212 65.4564 6.21117 65.6966 6.21031C65.9362 6.2092 66.1759 6.20808 66.4228 6.20694C66.9301 6.20509 67.4374 6.20381 67.9447 6.20306C68.721 6.20117 69.4972 6.19511 70.2735 6.18895C70.7661 6.18767 71.2587 6.18665 71.7513 6.1859C71.9837 6.18348 72.216 6.18107 72.4555 6.17859C72.781 6.17947 72.781 6.17947 73.1131 6.18036C73.3034 6.17965 73.4938 6.17894 73.6899 6.17821C74.5658 6.29711 75.1868 6.74169 75.7323 7.42186C76.2353 8.09244 76.386 8.56246 76.4289 9.37727C76.4371 9.52519 76.4453 9.6731 76.4537 9.8255C76.4614 9.97895 76.469 10.1324 76.477 10.2905C76.4854 10.4462 76.4938 10.6019 76.5025 10.7624C76.5232 11.1462 76.5429 11.5301 76.5624 11.914C77.3014 11.7601 77.5969 11.5196 78.1127 10.9619C79.0843 9.95981 79.8095 9.423 81.2499 9.37498C82.7718 9.64711 83.6844 10.4599 84.7465 11.5303C84.9034 11.6852 85.0604 11.8402 85.2222 11.9998C85.5517 12.3268 85.8798 12.6554 86.2064 12.9854C86.705 13.4873 87.2105 13.9816 87.717 14.4756C88.0375 14.7955 88.3575 15.1158 88.6771 15.4365C88.8277 15.5827 88.9782 15.7288 89.1333 15.8794C90.1136 16.8856 90.544 17.7269 90.6249 19.1406C90.4827 20.7337 89.1622 21.7752 88.0858 22.8515C88.0858 23.0449 88.0858 23.2383 88.0858 23.4375C88.425 23.4484 88.425 23.4484 88.771 23.4596C89.0716 23.4724 89.3722 23.4854 89.6728 23.4985C89.8213 23.5029 89.9698 23.5073 90.1229 23.5119C91.2114 23.5635 92.0725 23.7468 92.8992 24.5186C93.545 25.363 93.774 25.7598 93.7814 26.8141C93.7832 27.0299 93.7851 27.2457 93.7871 27.468C93.7883 27.8193 93.7883 27.8193 93.7896 28.1776C93.7907 28.4175 93.7918 28.6574 93.793 28.9046C93.7948 29.4131 93.7961 29.9216 93.7968 30.4301C93.7981 31.2081 93.8048 31.986 93.8109 32.764C93.8122 33.2575 93.8132 33.751 93.814 34.2445C93.8164 34.4775 93.8188 34.7105 93.8213 34.9505C93.8207 35.1682 93.8201 35.3858 93.8195 35.61C93.8202 35.801 93.8209 35.9919 93.8217 36.1887C93.703 37.0653 93.2588 37.6863 92.578 38.2324C91.9074 38.7353 91.4374 38.8861 90.6226 38.929C90.4007 38.9412 90.4007 38.9412 90.1744 38.9538C90.0209 38.9614 89.8675 38.9691 89.7094 38.977C89.5537 38.9855 89.3979 38.9939 89.2375 39.0026C88.8537 39.0233 88.4697 39.043 88.0858 39.0625C88.2398 39.8015 88.4803 40.097 89.038 40.6128C90.0401 41.5844 90.5769 42.3096 90.6249 43.75C90.3532 45.2749 89.537 46.1849 88.4627 47.2465C88.3073 47.4035 88.1519 47.5605 87.9918 47.7223C87.6639 48.0518 87.3346 48.3798 87.0038 48.7065C86.5001 49.2054 86.0035 49.7108 85.5071 50.217C85.1866 50.5375 84.8656 50.8576 84.5443 51.1772C84.3971 51.3277 84.25 51.4783 84.0983 51.6334C83.1579 52.5496 82.3846 53.0424 81.0546 53.125C79.3086 52.9864 78.3346 51.7721 77.1483 50.5859C76.955 50.5859 76.7616 50.5859 76.5624 50.5859C76.5551 50.812 76.5478 51.0381 76.5403 51.271C76.5275 51.5716 76.5145 51.8722 76.5014 52.1728C76.497 52.3214 76.4926 52.4699 76.488 52.623C76.4293 53.8618 76.1329 54.6824 75.2929 55.6274C74.6163 56.2194 74.1315 56.2743 73.2642 56.2691C73.0811 56.2684 72.8979 56.2678 72.7092 56.2671C72.5185 56.2655 72.3278 56.2639 72.1313 56.2622C71.9383 56.2613 71.7453 56.2604 71.5465 56.2595C71.07 56.2572 70.5936 56.254 70.1171 56.25C70.0675 56.4199 70.0179 56.5899 69.9668 56.765C69.718 57.4449 69.4132 57.9599 69.0063 58.5571C68.8688 58.7598 68.7313 58.9625 68.5897 59.1713C68.0983 59.8573 67.574 60.5071 67.0218 61.145C66.7553 61.5047 66.7553 61.5047 66.8445 61.8982C67.0145 62.3664 67.2106 62.5907 67.5666 62.9364C67.6805 63.0484 67.7944 63.1605 67.9118 63.2759C68.0313 63.3904 68.1507 63.505 68.2738 63.623C68.4542 63.7994 68.4542 63.7994 68.6381 63.9793C68.9345 64.2688 69.2327 64.5564 69.5312 64.8437C69.6608 64.8037 69.7905 64.7637 69.9241 64.7224C70.0965 64.6698 70.269 64.6172 70.4467 64.563C70.7016 64.4848 70.7016 64.4848 70.9617 64.405C73.7971 63.6061 76.7274 63.9305 79.309 65.3442C81.9584 67.0971 84.1406 69.6449 86.3797 71.8797C86.866 72.3649 87.354 72.8483 87.8425 73.3312C88.2249 73.7099 88.6059 74.09 88.9867 74.4704C89.2514 74.7343 89.5175 74.9968 89.7837 75.2592C92.4923 77.9775 93.8056 80.409 93.8118 84.2322C93.7732 86.8622 92.7226 89.0355 91.0155 91.0156C88.2193 93.4439 85.4023 93.9523 81.8358 93.75C81.1232 93.6458 80.5346 93.4657 79.8827 93.164C79.6335 93.0564 79.6335 93.0564 79.3792 92.9466C76.2695 91.4406 73.826 88.3215 71.4071 85.9072C70.9206 85.4218 70.4324 84.9383 69.9437 84.4551C69.5613 84.0764 69.1802 83.6963 68.7995 83.3159C68.5344 83.0517 68.268 82.7889 68.0015 82.5261C66.6298 81.1495 65.3902 79.6969 64.6728 77.8686C64.5967 77.6801 64.5207 77.4915 64.4423 77.2972C63.6806 75.0719 63.8641 72.5982 64.7109 70.4368C64.8827 69.9437 64.8827 69.9437 64.7429 69.5389C64.3113 68.9459 63.8208 68.4285 63.3056 67.9077C63.2021 67.7978 63.0986 67.6879 62.992 67.5747C62.6546 67.2211 62.6546 67.2211 62.1093 66.7969C61.4142 66.874 61.0056 67.214 60.4663 67.6442C53.7915 72.9498 44.7665 74.9681 36.3814 74.1218C35.3791 73.9992 34.3888 73.8284 33.3983 73.6328C33.1613 73.5872 33.1613 73.5872 32.9194 73.5407C26.4878 72.2543 20.8917 68.9618 16.2108 64.4531C16.0638 64.3184 15.9168 64.1837 15.7653 64.0449C10.1093 58.7066 6.44367 50.3483 6.19452 42.6189C6.11395 39.3467 6.03674 36.0067 6.83584 32.8125C6.87361 32.6542 6.91138 32.4959 6.95029 32.3329C8.31501 26.736 10.9082 21.6803 14.82 17.4431C15.2011 17.0283 15.5663 16.6041 15.9301 16.1743C19.8707 11.6771 25.8613 8.69093 31.5551 7.17772C31.8249 7.10554 31.8249 7.10554 32.1002 7.0319C34.7675 6.35282 37.3861 6.16909 40.1244 6.17674ZM19.9955 21.3058C18.6733 22.6866 17.5705 24.1351 16.6015 25.7812C16.516 25.9265 16.4305 26.0717 16.3424 26.2214C15.088 28.3936 14.1364 30.5885 13.4765 33.0078C13.4357 33.1496 13.3949 33.2914 13.3529 33.4375C11.4464 40.2762 12.7865 47.7976 16.2108 53.9062C17.3146 55.8327 18.6251 57.539 20.1171 59.1797C20.2692 59.3481 20.4212 59.5165 20.5779 59.6901C25.1925 64.5447 32.0817 67.6313 38.7855 67.8131C46.9898 67.917 53.7789 65.2585 59.8281 59.6977C60.9947 58.543 62.0238 57.2536 62.8905 55.8594C62.6126 55.6479 62.6126 55.6479 62.329 55.4321C61.7493 54.991 61.5336 54.6067 61.328 53.9062C61.2572 53.3333 61.2292 52.7616 61.206 52.185C61.1984 52.0311 61.1909 51.8771 61.1831 51.7185C61.1648 51.341 61.1485 50.9635 61.1327 50.5859C60.7892 50.4124 60.7892 50.4124 60.3515 50.3906C59.9015 50.7364 59.9015 50.7364 59.4848 51.2207C58.7248 52.0507 58.0827 52.609 56.9823 52.9053C55.6547 52.9495 54.6452 52.5462 53.6533 51.6628C53.3644 51.3841 53.0788 51.102 52.7961 50.8171C52.6434 50.6665 52.4908 50.5159 52.3335 50.3607C52.0131 50.0429 51.6943 49.7235 51.3769 49.4027C50.8924 48.9149 50.401 48.4348 49.9087 47.9549C49.5971 47.644 49.286 47.3326 48.9753 47.0207C48.829 46.8788 48.6827 46.7369 48.532 46.5908C47.5638 45.5963 47.1546 44.7537 47.0702 43.3594C47.2125 41.7663 48.5329 40.7248 49.6093 39.6484C49.5471 39.2367 49.5471 39.2367 49.414 38.8672C49.1879 38.8599 48.9618 38.8526 48.7288 38.845C48.4282 38.8322 48.1276 38.8192 47.8271 38.8061C47.6785 38.8017 47.53 38.7973 47.3769 38.7928C46.2072 38.7373 45.376 38.4788 44.4701 37.6953C43.9231 37.047 43.9195 36.48 43.9137 35.6637C43.9119 35.4479 43.91 35.2321 43.9081 35.0098C43.9068 34.6601 43.9068 34.6601 43.9055 34.3033C43.9044 34.0636 43.9033 33.824 43.9022 33.5771C43.9003 33.0698 43.899 32.5625 43.8983 32.0552C43.8964 31.2789 43.8903 30.5027 43.8842 29.7264C43.8829 29.2338 43.8819 28.7412 43.8811 28.2486C43.8787 28.0162 43.8763 27.7838 43.8738 27.5444C43.8744 27.3274 43.875 27.1104 43.8756 26.8868C43.8745 26.6013 43.8745 26.6013 43.8734 26.31C43.9912 25.4423 44.3791 24.9415 45.0194 24.3652C45.6407 23.9303 46.1367 23.8053 46.8772 23.7663C47.0251 23.7581 47.173 23.7499 47.3254 23.7415C47.4789 23.7338 47.6323 23.7262 47.7904 23.7182C48.024 23.7056 48.024 23.7056 48.2623 23.6927C48.6462 23.672 49.0301 23.6523 49.414 23.6328C49.5437 23.2644 49.5437 23.2644 49.6093 22.8515C49.2635 22.4016 49.2635 22.4016 48.7792 21.9848C47.9492 21.2249 47.3909 20.5827 47.0946 19.4824C47.0511 18.1777 47.3208 17.3241 48.2177 16.3589C48.7941 15.7693 49.392 15.2054 49.9999 14.6484C49.825 14.1894 49.825 14.1894 49.2118 14.0266C48.9503 13.9427 48.688 13.8613 48.4252 13.7817C48.2845 13.739 48.1438 13.6962 47.9989 13.6522C37.8285 10.6547 27.3525 13.8672 19.9955 21.3058ZM61.328 25.5859C59.6612 27.8863 59.2999 30.2268 59.5702 33.0078C60.0273 35.4294 61.5443 37.5678 63.5375 38.9953C65.8921 40.4964 68.4639 40.8321 71.1936 40.2946C73.439 39.6075 75.4925 38.154 76.7242 36.1328C78.0004 33.6547 78.4443 30.9358 77.6244 28.2226C76.5735 25.5472 74.596 23.6509 72.0252 22.4533C68.1205 21.0151 63.9297 22.5012 61.328 25.5859Z" fill="#E292FE"/>
</svg>
