<svg width="77" height="100" viewBox="0 0 77 100" fill="none" xmlns="http://www.w3.org/2000/svg">
<path d="M0 50V94C0 97.3137 2.68629 100 6 100H38.0859H70.1719C73.4856 100 76.1719 97.3137 76.1719 94V61.7188V29.4375C76.1719 26.1238 73.4856 23.4375 70.1719 23.4375H64.4531H56.7344C54.5252 23.4375 52.7344 21.6466 52.7344 19.4375V11.7188V6C52.7344 2.68629 50.0481 0 46.7344 0H26.3672H6C2.68629 0 0 2.68629 0 6V50ZM63.4766 40.7227V48.6328H60.5469H57.6172V45.7617V42.8711L48.7305 51.7578L39.8438 60.6445L33.4375 54.2383L27.0508 47.8516L21.875 53.0273L16.6992 58.2031L14.6484 56.1523L12.5977 54.1016L19.8828 46.8359L27.1484 39.5508L33.4961 45.8984L39.8438 52.2461L46.6406 45.4492L53.418 38.6719H50.625H47.8516V35.7422V32.8125H55.6641H63.4766V40.7227ZM63.6719 69.5312V72.4609H38.1836H12.6953V69.5312V66.6016H38.1836H63.6719V69.5312ZM63.6719 81.25V84.1797H38.1836H12.6953V81.25V78.3203H38.1836H63.6719V81.25Z" fill="#E292FE"/>
<path d="M58.5938 9.43359V15.5781C58.5938 16.6827 59.4892 17.5781 60.5938 17.5781H66.543H72.7868C73.4265 17.5781 73.7576 16.8145 73.3203 16.3477C72.6953 15.6836 69.1211 12.0117 65.3906 8.22266L60.3079 3.03765C59.6808 2.39801 58.5938 2.84197 58.5938 3.73769V9.43359Z" fill="#E292FE"/>
</svg>
