<svg width="100" height="100" viewBox="0 0 100 100" fill="none" xmlns="http://www.w3.org/2000/svg">
<g clip-path="url(#clip0_267_1178)">
<path d="M3.38202 -0.0743167C3.5457 -0.0752268 3.70938 -0.076137 3.87801 -0.0770747C4.42896 -0.0794173 4.97982 -0.0775703 5.53077 -0.0757548C5.92876 -0.0765695 6.32674 -0.0776391 6.72473 -0.0789423C7.82034 -0.0817751 8.91593 -0.0809334 10.0115 -0.0794957C11.1924 -0.0785744 12.3732 -0.0810123 13.554 -0.0830147C15.7342 -0.0861838 17.9144 -0.0866529 20.0946 -0.0856895C22.1087 -0.0848 24.1228 -0.0849158 26.1369 -0.0860489C26.407 -0.0861968 26.677 -0.0863444 26.947 -0.0864919C27.3538 -0.0867156 27.7607 -0.0869402 28.1676 -0.0871675C31.951 -0.0892588 35.7344 -0.0901808 39.5178 -0.0886382C39.6605 -0.0885802 39.8031 -0.0885221 39.9501 -0.0884623C41.1087 -0.087984 42.2673 -0.0874739 43.4259 -0.0869615C47.9457 -0.0849882 52.4655 -0.0866204 56.9853 -0.0911597C62.0618 -0.0962497 67.1382 -0.098762 72.2147 -0.097373C72.7557 -0.0972331 73.2968 -0.0971014 73.8379 -0.0969745C73.9711 -0.0969413 74.1044 -0.0969081 74.2416 -0.096874C76.2545 -0.0964238 78.2673 -0.0979839 80.2801 -0.100547C82.5687 -0.103456 84.8573 -0.103555 87.1459 -0.100143C88.3141 -0.0984746 89.4824 -0.0980749 90.6506 -0.101051C91.7193 -0.10374 92.788 -0.102845 93.8567 -0.0990512C94.2441 -0.098312 94.6314 -0.0989013 95.0187 -0.100928C95.544 -0.103483 96.0691 -0.101254 96.5944 -0.0978039C96.7458 -0.0996888 96.8972 -0.101574 97.0533 -0.103516C98.0636 -0.0898295 98.6358 0.144091 99.4146 0.781214C100.207 1.80125 100.152 2.86196 100 4.10153C99.5875 4.97341 99.1371 5.48495 98.2427 5.85934C97.787 5.86807 97.3311 5.86895 96.8755 5.85934C96.8759 6.00577 96.8762 6.15219 96.8766 6.30306C96.8985 14.988 96.9152 23.673 96.9254 32.358C96.9266 33.4016 96.9278 34.4452 96.9291 35.4888C96.9294 35.6966 96.9296 35.9043 96.9299 36.1184C96.9342 39.4791 96.9418 42.8399 96.9508 46.2006C96.96 49.6509 96.9654 53.1012 96.9674 56.5515C96.9687 58.6793 96.9729 60.807 96.9809 62.9348C96.9861 64.3953 96.9876 65.8558 96.9863 67.3164C96.9857 68.1581 96.9866 68.9998 96.9919 69.8415C96.9967 70.6141 96.9969 71.3865 96.9936 72.159C96.9931 72.4367 96.9943 72.7143 96.9974 72.9919C97.0274 75.8466 96.3471 78.226 94.5317 80.4687C94.3082 80.7769 94.3082 80.7769 94.0801 81.0913C92.2378 83.0192 89.6481 84.2788 86.9805 84.4102C86.0886 84.4281 85.1968 84.4233 84.3049 84.4193C83.9621 84.4192 83.6193 84.4193 83.2766 84.4195C82.3502 84.4196 81.4238 84.4173 80.4974 84.4146C79.5277 84.4121 78.558 84.4119 77.5883 84.4114C75.754 84.4102 73.9196 84.407 72.0852 84.4031C69.996 84.3987 67.9069 84.3966 65.8177 84.3946C61.5219 84.3905 57.226 84.3837 52.9302 84.375C52.9302 85.2129 52.9302 86.0507 52.9302 86.914C53.2524 87.0429 53.5747 87.1718 53.9067 87.3046C55.503 88.4233 56.5611 89.9103 56.9158 91.8373C57.2452 94.2147 56.5619 95.958 55.2373 97.8881C53.9383 99.1872 52.3013 100.032 50.448 100.074C48.1169 100.068 46.4218 99.5042 44.727 97.8515C43.3792 96.1949 42.8189 94.3935 43.0173 92.2554C43.3592 90.2915 44.2851 88.6872 45.8432 87.4237C46.5772 86.914 46.5772 86.914 47.0708 86.914C47.0708 86.0761 47.0708 85.2382 47.0708 84.375C46.8938 84.3755 46.7168 84.376 46.5344 84.3766C42.2208 84.3896 37.9072 84.3992 33.5936 84.4053C31.5076 84.4083 29.4215 84.4125 27.3355 84.4192C25.5166 84.425 23.6977 84.4288 21.8788 84.4301C20.9163 84.4309 19.9539 84.4326 18.9914 84.4369C18.0841 84.4409 17.1767 84.4421 16.2694 84.4412C15.9378 84.4414 15.6062 84.4426 15.2746 84.4448C11.8919 84.4667 8.77899 83.8919 6.23141 81.4682C3.86054 78.8295 2.96894 76.0948 3.00805 72.5865C3.00762 72.2964 3.00677 72.0062 3.00552 71.7161C3.00336 70.9277 3.00721 70.1394 3.01214 69.351C3.01639 68.4975 3.01493 67.644 3.01419 66.7905C3.01368 65.3147 3.01672 63.8389 3.02223 62.3631C3.0302 60.2294 3.03272 58.0957 3.03394 55.9619C3.03607 52.4994 3.04256 49.037 3.05181 45.5745C3.06079 42.2126 3.0677 38.8507 3.07184 35.4888C3.0721 35.2813 3.07235 35.0738 3.07262 34.86C3.07389 33.8189 3.07513 32.7779 3.07634 31.7368C3.08645 23.111 3.10364 14.4852 3.12549 5.85934C2.91299 5.86614 2.7005 5.87293 2.48156 5.87994C1.59766 5.85476 1.25693 5.64192 0.586423 5.07809C-0.17801 4.02132 -0.153394 3.01959 0.000485852 1.75778C0.731783 0.213928 1.76312 -0.0883423 3.38202 -0.0743167ZM19.4707 16.8945C18.9182 17.713 18.8647 18.3633 18.9458 19.3359C19.3761 20.3937 19.7916 20.8461 20.8142 21.3266C21.7399 21.6339 22.6805 21.5913 23.6469 21.5835C23.8816 21.5848 24.1163 21.586 24.3582 21.5872C25.0064 21.5898 25.6544 21.5889 26.3026 21.5865C27.0029 21.5847 27.7032 21.5874 28.4035 21.5896C29.7741 21.593 31.1447 21.5923 32.5153 21.59C33.6295 21.5883 34.7436 21.588 35.8577 21.5889C36.0958 21.5891 36.0958 21.5891 36.3386 21.5892C36.6611 21.5895 36.9835 21.5897 37.3059 21.59C40.3277 21.5922 43.3495 21.5897 46.3713 21.5855C48.9629 21.582 51.5545 21.5826 54.1461 21.5862C57.1573 21.5904 60.1684 21.592 63.1796 21.5896C63.5008 21.5894 63.822 21.5891 64.1433 21.5889C64.3013 21.5888 64.4593 21.5886 64.6222 21.5885C65.7347 21.5878 66.8472 21.589 67.9597 21.5908C69.3159 21.593 70.672 21.5924 72.0282 21.5883C72.7199 21.5862 73.4115 21.5854 74.1031 21.588C74.8535 21.5907 75.6037 21.5874 76.3541 21.5835C76.5719 21.5853 76.7897 21.587 77.0141 21.5888C78.2456 21.5764 79.2657 21.4614 80.2739 20.7031C80.8222 20.0776 81.0388 19.4692 81.1406 18.6401C81.013 17.637 80.7247 17.0331 79.981 16.3452C79.2796 15.8718 78.7608 15.7958 77.935 15.7946C77.6323 15.7935 77.6323 15.7935 77.3234 15.7923C76.9898 15.7926 76.9898 15.7926 76.6494 15.7928C76.4136 15.7923 76.1779 15.7917 75.935 15.7911C75.2794 15.7897 74.6238 15.7892 73.9683 15.789C73.2617 15.7887 72.5551 15.7872 71.8485 15.7859C70.303 15.7832 68.7574 15.782 67.2119 15.7812C66.2471 15.7806 65.2823 15.7798 64.3175 15.7789C61.647 15.7765 58.9764 15.7745 56.3059 15.7739C56.1349 15.7738 55.964 15.7738 55.7878 15.7737C55.6165 15.7737 55.4451 15.7737 55.2685 15.7736C54.9213 15.7735 54.574 15.7734 54.2267 15.7734C54.0545 15.7733 53.8822 15.7733 53.7048 15.7732C50.9131 15.7725 48.1215 15.769 45.3298 15.7645C42.4646 15.7599 39.5994 15.7574 36.7341 15.7572C35.125 15.757 33.516 15.7559 31.9069 15.7524C30.5368 15.7493 29.1667 15.7483 27.7966 15.75C27.0975 15.7507 26.3984 15.7505 25.6993 15.7478C24.9415 15.7449 24.1838 15.7465 23.426 15.7485C23.2049 15.7469 22.9837 15.7454 22.7559 15.7437C21.3921 15.7524 20.441 15.8455 19.4707 16.8945ZM35.753 31.4882C31.5714 31.9922 27.8269 33.5249 24.8052 36.5234C24.5514 36.7651 24.5514 36.7651 24.2925 37.0117C24.1394 37.1728 23.9863 37.334 23.8286 37.5C23.7153 37.612 23.602 37.724 23.4853 37.8395C20.2722 41.1849 18.8388 45.9449 18.8768 50.5045C18.9984 55.0418 20.791 59.4942 24.0239 62.6953C24.1851 62.8645 24.3462 63.0337 24.5122 63.208C24.6733 63.361 24.8345 63.5141 25.0005 63.6718C25.1125 63.7851 25.2246 63.8984 25.34 64.0152C28.5333 67.0822 33.0479 68.5089 37.4028 68.6035C42.1058 68.5068 46.5319 66.8745 50.0005 63.6718C50.1354 63.5525 50.2704 63.4332 50.4094 63.3102C53.6479 60.2902 55.4089 56.1311 55.9453 51.7944C55.9659 51.6428 55.9865 51.4911 56.0077 51.3349C56.1254 50.2064 55.9586 49.2713 55.4692 48.2422C54.6547 47.3598 53.6498 47.1079 52.4717 47.0233C52.2457 47.0242 52.0198 47.025 51.787 47.0259C51.5981 47.0258 51.5981 47.0258 51.4054 47.0258C50.9943 47.026 50.5832 47.0291 50.1721 47.0321C49.8851 47.0329 49.598 47.0334 49.311 47.0338C48.5593 47.0353 47.8077 47.0391 47.056 47.0435C46.2874 47.0475 45.5189 47.0492 44.7503 47.0512C43.2452 47.0554 41.74 47.062 40.2349 47.0703C40.2362 46.904 40.2375 46.7378 40.2388 46.5665C40.2506 44.9976 40.2595 43.4286 40.2652 41.8596C40.2683 41.053 40.2724 40.2465 40.2791 39.4399C40.2854 38.6611 40.2889 37.8823 40.2905 37.1034C40.2915 36.8068 40.2936 36.5101 40.2968 36.2134C40.3011 35.7969 40.3017 35.3804 40.3014 34.9639C40.3027 34.7271 40.304 34.4902 40.3053 34.2463C40.2118 33.3805 39.9408 32.7117 39.3186 32.0938C38.0896 31.3087 37.171 31.3282 35.753 31.4882ZM66.53 32.5315C66.0079 33.3397 65.8964 34.0205 66.0161 34.9609C66.3568 35.8753 66.772 36.3696 67.5786 36.914C68.1715 37.1117 68.578 37.1364 69.1986 37.1408C69.5154 37.1436 69.5154 37.1436 69.8387 37.1465C70.067 37.1473 70.2952 37.1482 70.5304 37.149C70.8827 37.1507 70.8827 37.1507 71.242 37.1524C71.7393 37.1542 72.2366 37.1555 72.7339 37.1563C73.4939 37.1582 74.2539 37.1642 75.0138 37.1704C75.4969 37.1716 75.98 37.1727 76.463 37.1734C76.8037 37.177 76.8037 37.177 77.1512 37.1807C78.6975 37.1792 78.6975 37.1792 80.0786 36.5234C80.7383 35.8102 81.0225 35.301 81.1162 34.3261C81.0449 33.4701 80.8367 32.8685 80.2739 32.2265C79.0753 31.3252 77.7945 31.3308 76.3494 31.3415C76.0136 31.3404 76.0136 31.3404 75.671 31.3393C75.1996 31.3387 74.7281 31.3401 74.2567 31.3434C73.5379 31.3476 72.8194 31.3435 72.1006 31.3385C71.641 31.339 71.1815 31.34 70.7219 31.3415C70.5085 31.3399 70.295 31.3384 70.0751 31.3367C68.7408 31.353 67.4601 31.4704 66.53 32.5315ZM66.6021 48.2544C66.0221 49.1062 65.8746 49.7544 66.0161 50.7812C66.3467 51.4318 66.3467 51.4318 66.7974 51.9531C66.8779 52.0659 66.9585 52.1787 67.0415 52.2949C68.1574 53.0919 69.7364 52.9896 71.0446 52.9884C71.3407 52.9897 71.3407 52.9897 71.6427 52.9909C72.0582 52.9921 72.4736 52.9922 72.8891 52.9913C73.5209 52.9907 74.1525 52.9953 74.7842 53.0002C75.1897 53.0007 75.5952 53.0008 76.0007 53.0006C76.1875 53.0024 76.3743 53.0042 76.5668 53.0061C77.8142 52.9976 79.2254 52.9314 80.2008 52.0601C80.8918 51.2504 81.1233 50.6952 81.1116 49.6284C81.0205 48.9672 80.6876 48.5551 80.2739 48.0468C80.1934 47.934 80.1128 47.8213 80.0298 47.705C78.9139 46.908 77.3349 47.0103 76.0266 47.0115C75.7306 47.0103 75.7306 47.0103 75.4285 47.009C75.0131 47.0079 74.5976 47.0078 74.1822 47.0086C73.5504 47.0092 72.9188 47.0047 72.2871 46.9997C71.8816 46.9993 71.4761 46.9991 71.0706 46.9993C70.8838 46.9975 70.6969 46.9957 70.5045 46.9939C69.08 47.0036 67.5803 47.1082 66.6021 48.2544ZM66.541 63.9648C65.9885 64.7833 65.9351 65.4336 66.0161 66.4062C66.4463 67.4637 66.8615 67.9155 67.8833 68.3965C68.8103 68.7041 69.7541 68.6656 70.7219 68.6584C71.0577 68.6595 71.0577 68.6595 71.4003 68.6607C71.8717 68.6612 72.3431 68.6598 72.8146 68.6565C73.5334 68.6523 74.2519 68.6565 74.9707 68.6615C75.4303 68.6609 75.8898 68.6599 76.3494 68.6584C76.5628 68.66 76.7763 68.6616 76.9962 68.6632C78.2329 68.6481 79.2614 68.5348 80.2739 67.7734C80.8222 67.1479 81.0388 66.5395 81.1406 65.7104C81.013 64.7073 80.7247 64.1034 79.981 63.4155C79.2605 62.9291 78.7216 62.8652 77.8727 62.8591C77.6615 62.8572 77.4502 62.8554 77.2326 62.8534C77.0043 62.8526 76.7761 62.8518 76.5409 62.8509C76.1886 62.8492 76.1886 62.8492 75.8293 62.8475C75.332 62.8457 74.8347 62.8444 74.3373 62.8437C73.5773 62.8418 72.8174 62.8357 72.0574 62.8296C71.5744 62.8283 71.0913 62.8273 70.6082 62.8265C70.2676 62.8229 70.2676 62.8229 69.9201 62.8192C68.5198 62.823 67.5385 62.8864 66.541 63.9648ZM49.2192 92.5781C49.2113 92.9686 49.2109 93.3594 49.2192 93.75C50.0205 93.9483 50.0205 93.9483 50.7817 93.75C50.79 93.3594 50.7897 92.9686 50.7817 92.5781C50.5633 92.3156 50.5633 92.3156 50.0005 92.3584C49.4377 92.3156 49.4377 92.3156 49.2192 92.5781Z" fill="#E292FE"/>
</g>
<defs>
<clipPath id="clip0_267_1178">
<rect width="100" height="100" fill="white"/>
</clipPath>
</defs>
</svg>
