<svg width="100" height="100" viewBox="0 0 100 100" fill="none" xmlns="http://www.w3.org/2000/svg">
<path d="M7.0895 7.38266C5.85903 7.81235 4.8434 8.57407 4.08168 9.62876C2.89028 11.2694 2.90981 10.8397 2.9684 28.7303L3.027 45.0194L3.49575 46.035C4.00356 47.1874 5.44887 48.6327 6.56215 49.1405C7.14809 49.4139 8.08559 49.5116 10.7418 49.5897L14.1598 49.7069L14.2184 54.8631C14.2379 58.2811 14.3356 60.117 14.4723 60.2928C15.0582 60.9959 15.527 60.6249 20.8395 55.078L26.0739 49.6288L34.0036 49.6092H41.9333L42.07 48.2616C42.3434 45.5272 43.3004 42.1874 44.6676 39.2772C47.2262 33.7303 52.1872 28.5741 57.6364 25.7811L59.5895 24.785L59.5309 18.1053C59.4723 11.66 59.4528 11.3866 59.0426 10.5467C58.4762 9.39438 57.3825 8.30063 56.1715 7.6561L55.1754 7.12876L31.6403 7.08969C9.45278 7.05063 8.04653 7.07016 7.0895 7.38266ZM39.0622 13.6717C39.57 14.1795 39.7262 14.9022 39.4333 15.4686C39.0817 16.1522 20.5661 41.8944 20.234 42.1678C19.7457 42.578 18.7887 42.4803 18.2614 41.992C17.2457 41.035 17.07 41.328 27.2653 27.1483C32.4606 19.9022 36.9137 13.8084 37.1286 13.6131C37.6754 13.1639 38.5739 13.1834 39.0622 13.6717ZM22.9879 14.8241C24.57 15.6249 25.3903 17.0116 25.3903 18.8475C25.3903 22.6366 20.9176 24.6288 18.1247 22.1092C17.109 21.1913 16.6012 20.117 16.6012 18.7889C16.6012 15.4491 20.0387 13.3006 22.9879 14.8241ZM38.5934 33.2225C40.5856 34.453 41.2106 37.2264 39.9801 39.3163C38.6715 41.5428 35.3708 42.0702 33.3395 40.41C31.0153 38.4959 31.4059 34.453 34.0426 33.0663C35.3903 32.3827 37.3434 32.4413 38.5934 33.2225Z" fill="#E292FE"/>
<path d="M68.085 25.7812C59.1787 26.914 51.6787 32.1875 47.6748 40.1953C46.7959 41.9336 45.7803 45.0976 45.4092 47.1679C44.999 49.4726 44.999 53.8476 45.4092 56.1523C47.2646 66.6992 55.4482 75.039 65.9756 77.1289C69.9209 77.9101 73.5147 77.8125 77.4795 76.8359L79.4522 76.3476L86.7959 78.3203C90.8193 79.3945 94.2568 80.2148 94.4326 80.1562C95.1943 79.8437 95.1553 79.4726 93.5537 73.4765C92.6943 70.2734 91.9912 67.5195 91.9912 67.3828C91.9912 67.2461 92.4404 66.4258 92.9873 65.5664C94.7256 62.8711 96.1318 59.2773 96.6982 56.0547C97.0889 53.9453 97.0303 48.9453 96.6201 46.8359C95.585 41.6211 93.2412 37.207 89.4522 33.3789C85.6826 29.5508 81.4248 27.2461 76.1514 26.1719C73.9443 25.7226 70.0576 25.5273 68.085 25.7812ZM72.0889 34.5508C72.5967 35.0586 72.6553 35.2539 72.6553 36.3672V37.5976L74.0225 38.0273C76.542 38.8281 78.5342 40.4883 79.6279 42.7148C80.2139 43.9453 80.1357 44.5312 79.2568 45.1758C78.3975 45.8203 77.6162 45.4687 76.8154 44.1015C76.0147 42.7344 74.667 41.5234 73.4951 41.1328C72.3037 40.7226 70.0381 40.7422 68.7686 41.1523C67.5772 41.5234 66.0732 42.7734 65.7022 43.6914C65.292 44.6289 65.3701 46.1719 65.8193 47.0898C66.5225 48.457 68.1631 49.2578 71.6787 49.9804C76.2881 50.9179 78.7686 52.4609 79.999 55.1367C80.4873 56.1914 80.5654 56.582 80.5654 58.1054C80.5654 59.4922 80.4678 60.0586 80.1357 60.7812C79.2178 62.7734 76.835 64.4726 73.9834 65.1562L72.6553 65.4883V66.582C72.6553 67.8906 72.3428 68.5547 71.6006 68.9062C71.1709 69.1211 70.9561 69.1211 70.4873 68.9453C69.7061 68.6133 69.5303 68.2226 69.5303 66.7187C69.5303 65.4883 69.5107 65.4297 69.0029 65.3125C65.6826 64.5898 63.124 62.7344 61.9717 60.2148C61.0342 58.164 61.4248 56.8359 62.9678 56.8359C63.749 56.8359 64.2568 57.3633 64.7256 58.6328C65.1553 59.8242 66.3662 61.0351 67.7334 61.6797C68.749 62.1679 69.0615 62.207 71.1904 62.207C73.3584 62.207 73.6318 62.1679 74.7647 61.6406C76.8154 60.6836 77.7529 59.2578 77.4795 57.5195C77.0889 55.0781 75.2529 53.8672 70.5068 52.9297C66.6201 52.1484 64.1201 50.6445 62.9482 48.3594C62.2061 46.9336 62.0889 44.3164 62.6943 42.7344C63.5732 40.3906 66.0928 38.4179 69.0029 37.8125C69.5107 37.6953 69.5303 37.6367 69.5303 36.4062C69.5303 34.9804 69.7451 34.4336 70.3701 34.1797C71.1123 33.8867 71.5029 33.9648 72.0889 34.5508Z" fill="#E292FE"/>
<path d="M25.9756 62.91C20.8194 64.2577 16.9717 67.8905 15.2139 73.0468C14.628 74.7655 14.5694 75.0975 14.5694 77.5389C14.5498 80.5663 14.8038 81.8163 15.9952 84.2772C17.8702 88.203 21.6397 91.328 25.878 92.4608C27.5967 92.9296 30.1944 93.0663 31.9717 92.7733C38.2217 91.7772 43.0069 87.4022 44.5498 81.2499C44.9014 79.8436 44.96 79.2382 44.8623 77.0507C44.7452 74.2772 44.4522 73.0077 43.3584 70.8788C41.3272 66.8358 37.5186 63.828 33.1631 62.7929C31.3663 62.3632 27.792 62.4218 25.9756 62.91ZM37.6944 71.7772C38.3389 72.1093 38.6123 72.8514 38.3584 73.5741C38.2608 73.8475 35.7608 76.2499 32.8116 78.9257C27.9288 83.3397 27.3819 83.7889 26.7569 83.7889C26.1319 83.7889 25.8194 83.535 23.5538 81.2694C21.3663 79.0624 21.0342 78.6522 21.0342 78.1054C21.0342 77.6561 21.1905 77.3436 21.5616 77.0116C22.4991 76.2108 22.9092 76.3866 24.9209 78.3397L26.7373 80.1366L27.3623 79.6093C27.6944 79.3163 29.7256 77.4804 31.8741 75.5272C34.0225 73.5741 35.9756 71.8749 36.21 71.7382C36.7569 71.4257 37.0108 71.4257 37.6944 71.7772Z" fill="#E292FE"/>
</svg>
