<svg width="100" height="100" viewBox="0 0 100 100" fill="none" xmlns="http://www.w3.org/2000/svg">
<path d="M69.2392 5.15614C68.7704 5.62489 68.7509 5.7616 68.7509 7.81239C68.7509 9.84364 68.7704 9.99989 69.2392 10.4491L69.7079 10.9374H74.6493H79.5907L67.9306 22.5975L56.2704 34.2577L50.3329 28.3593C43.5165 21.6014 43.2431 21.4061 40.6259 21.4061C37.7938 21.4061 38.4774 20.8202 23.7704 35.5077C16.6024 42.6757 10.5477 48.828 10.3134 49.1796C10.0595 49.5897 9.96181 49.9804 10.0399 50.2733C10.1962 50.8788 13.1845 53.8671 13.7899 54.0233C14.0829 54.1015 14.454 54.0038 14.8056 53.789C15.0985 53.5936 21.0165 47.7343 27.9696 40.7421L40.6063 28.0272L46.661 34.0819C53.5556 40.9764 53.7313 41.0936 56.2509 41.0936C58.9071 41.0936 58.3212 41.6014 72.0712 27.8514L84.3759 15.5663V20.5858V25.6054L84.8642 26.0741C85.3134 26.5429 85.4696 26.5624 87.5009 26.5624C89.5517 26.5624 89.6884 26.5429 90.1571 26.0741L90.6454 25.5858L90.5868 16.1327C90.5282 6.91394 90.5087 6.66004 90.1181 6.1327C89.9032 5.83973 89.4735 5.41004 89.1806 5.1952C88.6532 4.80457 88.3993 4.78504 79.1806 4.72645L69.7274 4.66785L69.2392 5.15614Z" fill="#E292FE"/>
<path d="M78.066 45.6054C74.4332 46.1132 71.4644 47.0898 70.5855 48.0663C70.2144 48.4765 70.2144 48.4765 70.8785 49.0429C72.7925 50.6249 78.6519 51.7187 84.1793 51.5038C87.441 51.3671 89.8433 50.996 92.148 50.2734C93.691 49.7851 95.3121 48.8476 95.3121 48.4374C95.3121 48.0468 93.73 47.1093 92.2261 46.621C91.3668 46.3281 89.8433 45.957 88.8277 45.7812C86.3082 45.3515 80.5074 45.2538 78.066 45.6054Z" fill="#E292FE"/>
<path d="M70.3125 55.9961V59.5703L71.0742 60.1172C72.0508 60.8203 74.3164 61.582 76.8555 62.0312C79.5312 62.5195 85.9961 62.5195 88.7305 62.0507C91.1914 61.6211 93.5547 60.8398 94.5508 60.1172L95.3125 59.5703V55.9961V52.4023L93.4375 53.0664C89.7266 54.3554 88.1641 54.5703 82.8125 54.5703C77.4609 54.5703 75.8984 54.3554 72.1875 53.0664L70.3125 52.4023V55.9961Z" fill="#E292FE"/>
<path d="M45.2535 56.5429C41.6207 57.0507 38.6519 58.0273 37.773 59.0038C37.4019 59.414 37.4019 59.414 38.066 59.9804C41.2496 62.6366 53.0074 63.3007 59.4136 61.1913C60.9175 60.7031 62.4996 59.7656 62.4996 59.3749C62.4996 58.9843 60.9175 58.0468 59.4136 57.5585C58.5543 57.2656 57.0308 56.8945 56.0152 56.7187C53.4957 56.289 47.6949 56.1913 45.2535 56.5429Z" fill="#E292FE"/>
<path d="M37.5 66.9336V70.5078L38.2617 71.0547C39.2383 71.7578 41.5039 72.5195 44.043 72.9687C46.7188 73.457 53.1836 73.457 55.918 72.9882C58.3789 72.5586 60.7422 71.7773 61.7383 71.0547L62.5 70.5078V66.9336V63.3398L60.625 64.0039C56.9531 65.2734 55.332 65.5078 50.0977 65.5273C44.8633 65.5273 43.0273 65.2734 39.3359 63.9843L37.5 63.3398V66.9336Z" fill="#E292FE"/>
<path d="M70.3125 66.9336V70.5078L71.0742 71.0547C72.0508 71.7578 74.3164 72.5195 76.8555 72.9687C79.5312 73.457 85.9961 73.457 88.7305 72.9882C91.1914 72.5586 93.5547 71.7773 94.5508 71.0547L95.3125 70.5078V66.9336V63.3398L93.4375 64.0039C89.7656 65.2734 88.1445 65.5078 82.9102 65.5273C77.6758 65.5273 75.8398 65.2734 72.1484 63.9843L70.3125 63.3398V66.9336Z" fill="#E292FE"/>
<path d="M12.441 67.4804C8.80817 67.9882 5.83942 68.9648 4.96052 69.9413C4.58942 70.3515 4.58942 70.3515 5.25349 70.9179C8.43708 73.5741 20.1949 74.2382 26.6011 72.1288C28.105 71.6406 29.6871 70.7031 29.6871 70.3124C29.6871 69.9218 28.105 68.9843 26.6011 68.496C25.7418 68.2031 24.2183 67.832 23.2027 67.6562C20.6832 67.2265 14.8824 67.1288 12.441 67.4804Z" fill="#E292FE"/>
<path d="M4.6875 77.8711V81.4453L5.44922 81.9922C6.42578 82.6953 8.69141 83.457 11.2305 83.9062C13.9062 84.3945 20.3711 84.3945 23.1055 83.9257C25.5664 83.4961 27.9297 82.7148 28.9258 81.9922L29.6875 81.4453V77.8711V74.2773L27.8125 74.9414C24.1406 76.2109 22.5195 76.4453 17.2852 76.4648C12.0508 76.4648 10.2148 76.2109 6.52344 74.9218L4.6875 74.2773V77.8711Z" fill="#E292FE"/>
<path d="M37.5 77.8711V81.4453L38.2617 81.9922C39.2383 82.6953 41.5039 83.457 44.043 83.9062C46.7188 84.3945 53.1836 84.3945 55.918 83.9257C58.3789 83.4961 60.7422 82.7148 61.7383 81.9922L62.5 81.4453V77.8711V74.2773L60.625 74.9414C56.9531 76.2109 55.332 76.4453 50.0977 76.4648C44.8633 76.4648 43.0273 76.2109 39.3359 74.9218L37.5 74.2773V77.8711Z" fill="#E292FE"/>
<path d="M70.3125 77.8711V81.4453L71.0742 81.9922C72.0508 82.6953 74.3164 83.457 76.8555 83.9062C79.5312 84.3945 85.9961 84.3945 88.7305 83.9257C91.1914 83.4961 93.5547 82.7148 94.5508 81.9922L95.3125 81.4453V77.8711V74.2773L93.4375 74.9414C89.7656 76.2109 88.1445 76.4453 82.9102 76.4648C77.6758 76.4648 75.8398 76.2109 72.1484 74.9218L70.3125 74.2773V77.8711Z" fill="#E292FE"/>
<path d="M4.6875 88.8086V92.3828L5.44922 92.9297C6.42578 93.6328 8.69141 94.3945 11.2305 94.8437C13.9062 95.332 20.3711 95.332 23.1055 94.8632C25.5664 94.4336 27.9297 93.6523 28.9258 92.9297L29.6875 92.3828V88.8086V85.2148L27.8125 85.8789C24.1406 87.1484 22.5195 87.3828 17.2852 87.4023C12.0508 87.4023 10.2148 87.1484 6.52344 85.8593L4.6875 85.2148V88.8086Z" fill="#E292FE"/>
<path d="M37.5 88.8086V92.3828L38.2617 92.9297C39.2383 93.6328 41.5039 94.3945 44.043 94.8437C46.7188 95.332 53.1836 95.332 55.918 94.8632C58.3789 94.4336 60.7422 93.6523 61.7383 92.9297L62.5 92.3828V88.8086V85.2148L60.625 85.8789C56.9531 87.1484 55.332 87.3828 50.0977 87.4023C44.8633 87.4023 43.0273 87.1484 39.3359 85.8593L37.5 85.2148V88.8086Z" fill="#E292FE"/>
<path d="M70.3125 88.8086V92.3828L71.0742 92.9297C72.0508 93.6328 74.3164 94.3945 76.8555 94.8437C79.5312 95.332 85.9961 95.332 88.7305 94.8632C91.1914 94.4336 93.5547 93.6523 94.5508 92.9297L95.3125 92.3828V88.8086V85.2148L93.4375 85.8789C89.7656 87.1484 88.1445 87.3828 82.9102 87.4023C77.6758 87.4023 75.8398 87.1484 72.1484 85.8593L70.3125 85.2148V88.8086Z" fill="#E292FE"/>
</svg>
