<svg width="100" height="100" viewBox="0 0 100 100" fill="none" xmlns="http://www.w3.org/2000/svg">
<path d="M34.4336 0.429558C34.082 0.663933 31.0352 4.41393 27.6367 8.74987C21.6602 16.4061 21.4844 16.66 21.4844 17.4999C21.4844 17.9882 21.6211 18.5936 21.7969 18.8671C22.3828 19.7264 23.0273 19.9217 25.4883 19.9217C28.0273 19.9217 28.8086 20.1366 29.3945 21.0155C29.7461 21.5428 29.7852 22.0311 29.8828 26.8749C30.0195 33.9061 29.7266 33.5936 35.7812 33.5936C41.7383 33.5936 41.6016 33.7694 41.6016 26.5038V21.4842L42.2656 20.7421L42.9297 20.0194L45.7617 19.9217C48.3984 19.8241 48.6328 19.785 49.082 19.3749C49.7656 18.7303 50.0781 17.91 49.9219 17.1483C49.8438 16.6991 47.9102 14.1014 43.75 8.78893C40.4102 4.55065 37.4805 0.859245 37.2266 0.605339C36.543 -0.0782547 35.2344 -0.15638 34.4336 0.429558Z" fill="#E292FE"/>
<path d="M13.1843 39.9023C12.0906 40.4297 10.8601 41.6797 10.3913 42.7539C10.2351 43.1445 10.0788 44.043 10.0788 44.7461C10.0398 47.1289 11.5828 49.1992 13.907 49.9023C14.7663 50.1562 16.9929 50.1953 29.4148 50.1953H43.907L45.6648 48.8672C47.8913 47.207 51.4656 45.332 54.1023 44.4531C56.0554 43.8086 59.6687 42.9688 60.5281 42.9688C61.114 42.9688 61.0359 42.6172 60.196 41.5234C59.7663 40.918 59.1023 40.3516 58.4968 40.0586L57.5398 39.5508L35.8406 39.5117L14.1609 39.4531L13.1843 39.9023Z" fill="#E292FE"/>
<path d="M59.2781 49.0234C49.7859 50.9375 41.8562 58.4375 39.4539 67.7734C38.5945 71.1719 38.3992 75.3711 38.9656 78.6133C40.6062 87.9297 47.4031 95.8008 56.3289 98.7109C59.2 99.6484 60.8016 99.9023 64.2586 99.9023C66.9148 99.9023 67.8328 99.8242 69.5125 99.4336C74.6687 98.3008 78.6922 96.1133 82.3445 92.4805C86.8172 88.0273 89.2195 82.9102 89.8641 76.4648C90.3719 71.4844 89.1219 65.8008 86.5633 61.4258C82.7937 54.9805 75.9187 50.2344 68.4773 48.9258C66.075 48.5156 61.5633 48.5547 59.2781 49.0234ZM65.782 56.5625C66.407 56.9727 66.9344 57.9102 67.0906 58.8867C67.1883 59.668 67.2859 59.7656 67.9305 59.9805C69.3367 60.4297 70.5281 61.1523 70.8992 61.7773C71.407 62.5977 71.407 63.9648 70.8992 64.8047C70.0398 66.1914 68.5359 66.5625 66.7391 65.7617C65.5476 65.2539 63.4383 65.1758 62.6375 65.6055C61.9344 65.9766 61.4851 66.9336 61.5633 67.8711C61.6219 68.5547 61.7391 68.7305 62.5594 69.2578C63.0867 69.6094 64.4344 70.2539 65.5867 70.6836C66.7391 71.1328 68.2039 71.7383 68.8484 72.0312C70.4305 72.7539 72.032 74.3555 72.8523 76.0547C73.4383 77.2266 73.5359 77.6367 73.5945 79.2188C73.6726 80.6641 73.5945 81.3086 73.2625 82.3828C72.5008 84.9023 70.6062 87.1484 68.3406 88.2422C67.2664 88.75 67.2273 88.7891 67.1297 89.707C66.9148 91.3672 65.8406 92.3828 64.2195 92.3828C62.7156 92.3828 61.3289 91.0938 61.3289 89.7266C61.3289 89.1602 61.2508 89.1016 60.6062 88.9648C58.4773 88.5742 55.743 87.0117 55.2156 85.8789C54.5711 84.5508 54.9617 83.1445 56.2508 82.1875C57.2469 81.4648 58.0476 81.5039 59.825 82.4023C62.5203 83.75 65.1961 83.7305 66.6219 82.3438C67.4226 81.582 67.7742 80.7227 67.7742 79.5898C67.7742 78.1641 67.0711 77.5781 63.7703 76.2695C59.2 74.4531 57.2859 73.0859 56.2703 70.918C55.8211 69.9414 55.7625 69.5898 55.7625 67.6758C55.7625 65.625 55.8016 65.4688 56.4266 64.1602C57.2469 62.4805 58.6922 60.9961 60.2156 60.293C61.2703 59.7852 61.3289 59.707 61.3289 59.0625C61.3289 56.7773 63.8875 55.3516 65.782 56.5625Z" fill="#E292FE"/>
<path d="M13.8672 56.2305C12.9102 56.5235 12.168 57.0118 11.4453 57.8126C10.4102 58.9649 10.0977 59.8243 10.0781 61.4258C10.0781 63.5743 11.0742 65.1563 13.1641 66.2696C13.9453 66.6993 14.1016 66.6993 23.7891 66.7579C31.6797 66.7969 33.6133 66.7579 33.6719 66.5626C33.7305 66.4258 33.9844 65.5665 34.2773 64.6485C34.8438 62.793 36.5039 59.2188 37.5391 57.5977C37.9102 57.0118 38.2813 56.4258 38.3594 56.2891C38.4766 56.1133 36.0352 56.0547 26.4258 56.0743C19.7852 56.0743 14.1406 56.1524 13.8672 56.2305Z" fill="#E292FE"/>
<path d="M13.8667 72.832C12.4409 73.2617 10.9956 74.5703 10.3901 75.957C9.92136 77.0312 9.97995 79.1992 10.5073 80.1953C11.1518 81.4453 11.8745 82.1875 12.9682 82.7734L13.9643 83.3008L24.0034 83.3594L34.0229 83.418L33.8862 82.8711C33.2221 80.332 32.9682 78.4961 32.8706 75.7227L32.7534 72.6562L23.5542 72.6758C18.4956 72.6758 14.1401 72.7539 13.8667 72.832Z" fill="#E292FE"/>
<path d="M13.535 89.5703C13.0858 89.7461 12.3241 90.2148 11.8553 90.625C9.41393 92.7929 9.45299 96.582 11.953 98.7109C13.496 100.039 13.0077 100 30.3124 99.9609L45.8788 99.9023L44.5116 98.8281C41.9335 96.8164 39.3163 93.8476 37.4217 90.7617L36.4842 89.2578L25.41 89.2773C16.1717 89.2773 14.2186 89.3359 13.535 89.5703Z" fill="#E292FE"/>
</svg>
