<svg width="100" height="100" viewBox="0 0 100 100" fill="none" xmlns="http://www.w3.org/2000/svg">
<path d="M48.8672 4.0625C44.9219 8.76953 44.4141 15.3711 47.6562 20.2148L48.418 21.3867L48.4375 25.4688V29.5703L47.7148 28.3594C45.5469 24.8047 41.9336 22.1484 37.8125 21.0938C36.6797 20.8008 35.625 20.7031 33.8477 20.7031H31.4453V21.3477C31.4453 22.4023 32.168 24.9414 32.8906 26.4453C35.5078 31.8555 41.3086 35.5469 47.207 35.5469H48.4375V38.3203C48.4375 40.6836 48.3789 41.1328 48.1055 41.4453C47.9102 41.6602 47.5391 42.2852 47.2656 42.832C46.6602 44.082 46.0547 44.375 45.0195 43.8867C42.8906 42.8711 40.625 44.1406 40.625 46.3867C40.625 47.3047 40.8594 47.7344 41.9531 48.8672L42.8516 49.8047H50H57.1484L58.0469 48.8672C59.1406 47.7344 59.375 47.3047 59.375 46.3867C59.375 44.1406 57.1094 42.8711 54.9805 43.8867C53.9453 44.375 53.3398 44.082 52.7344 42.832C52.4609 42.2852 52.0898 41.6602 51.9141 41.4453C51.6211 41.1328 51.5625 40.6836 51.5625 38.3398V35.6055L53.4766 35.4883C56.2695 35.3125 58.7695 34.5703 61.0547 33.1836C63.4961 31.6992 66.1328 28.6719 67.3047 26.0352C67.9102 24.668 68.5547 22.2656 68.5547 21.3477V20.7031H66.1523C64.375 20.7031 63.3203 20.8008 62.1875 21.0938C58.0664 22.1484 54.4531 24.8047 52.3047 28.3594L51.5625 29.5703V25.3125V21.0547L52.2266 19.9414C52.5977 19.3359 53.1445 18.1445 53.457 17.2852C53.9453 15.8789 54.0039 15.4688 54.0039 13.0859C54.0039 10.8398 53.9453 10.2539 53.5547 9.08203C52.9297 7.20703 51.9336 5.46875 50.7227 4.16016L49.6875 3.06641L48.8672 4.0625Z" fill="#E292FE"/>
<path d="M42.4219 53.3199C40.5859 54.4332 40.5859 56.8746 42.4219 58.0074C43.0469 58.398 43.3594 58.398 50.2344 58.359L57.3828 58.3004L57.9102 57.8121C59.4336 56.4058 59.2578 54.3551 57.5586 53.3199C56.9727 52.9488 56.5234 52.9293 50 52.9293C43.418 52.9293 43.0273 52.9488 42.4219 53.3199Z" fill="#E292FE"/>
<path d="M39.9021 63.1443C36.6208 66.992 33.8083 71.0545 32.6364 73.6717C31.1911 76.8553 30.781 80.8592 31.6013 84.0037C33.1833 89.9998 38.0857 94.5506 44.8825 96.3084C46.8357 96.8162 50.7028 96.992 53.0271 96.699C59.2575 95.8787 64.6091 92.2263 67.2263 87.031C69.2575 82.9685 69.3161 77.9881 67.3825 73.6912C66.1911 71.0545 63.3786 66.992 60.0974 63.1443C58.4177 61.1717 58.3982 61.1717 57.7732 61.3474C57.4216 61.4451 53.9255 61.5232 49.9997 61.5232C46.0739 61.5232 42.5779 61.4451 42.2263 61.3474C41.6013 61.1717 41.5818 61.1717 39.9021 63.1443ZM50.6833 66.7185C51.0739 66.8748 51.5622 67.7928 51.5622 68.3982C51.5622 68.7498 51.7966 68.9451 52.5974 69.2967C54.3357 70.0389 55.8591 71.8553 55.8591 73.1639C55.8591 73.906 55.156 74.6092 54.4138 74.6092C53.6911 74.5896 53.3786 74.3748 52.695 73.3201C52.0896 72.3826 51.1521 71.8748 50.0193 71.8748C48.4177 71.8748 47.2654 72.7146 47.2654 73.8865C47.2654 75.1365 47.8904 75.5662 50.5075 76.1521C52.5583 76.6014 53.32 76.9138 54.4138 77.6951C56.0739 78.906 56.7575 81.6013 55.8786 83.5154C55.2927 84.8045 53.7693 85.8982 51.8357 86.4256C51.7185 86.4646 51.5622 86.8357 51.4841 87.2849C51.1716 89.2185 48.5935 89.1209 48.3982 87.1482C48.3396 86.5623 48.2419 86.4646 47.1872 86.0349C46.5427 85.781 45.6833 85.2342 45.2536 84.824C44.4333 84.0428 43.5544 82.4217 43.5544 81.699C43.5544 81.0154 44.3747 80.2146 45.0779 80.2146C45.8591 80.2146 46.2107 80.5076 46.7966 81.6795C47.6169 83.3201 49.8435 83.9256 51.9138 83.1053C52.8318 82.7342 53.1247 82.3435 53.1247 81.5037C53.1247 80.3123 52.2263 79.6678 49.9607 79.199C46.9333 78.574 45.4294 77.7146 44.6482 76.1326C43.281 73.3982 44.7458 70.0193 47.7146 69.1014C48.3591 68.906 48.4372 68.8084 48.4372 68.2224C48.4372 67.0701 49.5896 66.3084 50.6833 66.7185Z" fill="#E292FE"/>
</svg>
