<svg width="100" height="100" viewBox="0 0 100 100" fill="none" xmlns="http://www.w3.org/2000/svg">
<path d="M48.0472 5.39074C45.8597 5.97668 43.9652 7.65636 43.1253 9.72668C42.6761 10.84 42.6761 10.84 42.6175 22.3634C42.5785 29.6876 42.6371 34.1993 42.7542 34.8048C43.2621 37.09 44.7855 39.0431 46.8363 40.0001C47.891 40.5079 48.1253 40.5275 51.5238 40.5861L55.0785 40.6446V44.6095C55.0785 48.3595 55.098 48.6134 55.5277 49.4142C55.8402 50.0001 56.2503 50.4103 56.8363 50.7228C57.8519 51.2696 58.6331 51.2892 59.6683 50.8009C60.098 50.5861 62.9886 48.2228 66.1136 45.5275L71.7777 40.6251H80.4105C88.7113 40.6251 89.0824 40.6056 90.1566 40.215C91.8949 39.5704 93.1253 38.4181 94.0433 36.6407L94.8246 35.0978V22.9689V10.84L94.3558 9.66808C93.7113 8.06652 91.9339 6.28918 90.3324 5.64465L89.1605 5.1759L69.141 5.13683C51.973 5.09777 48.9652 5.13683 48.0472 5.39074Z" fill="#D55CFF"/>
<path d="M30.1367 39.2578C25.8008 40.1172 21.6016 43.2227 19.5312 47.0898C15.0391 55.5273 18.7305 65.7422 27.5781 69.3359C28.9844 69.9023 28.9844 69.9023 28.2227 69.9219C27.0508 69.9219 23.0078 70.625 20.8008 71.2109C17.3242 72.1094 13.8672 73.6133 11.2891 75.332C9.64844 76.4258 7.30469 78.8477 6.50391 80.2734C5.3125 82.3828 5.17578 83.125 5.17578 87.1094C5.17578 90.5273 5.19531 90.7617 5.64453 91.6016C6.26953 92.793 7.12891 93.6914 8.30078 94.2969L9.27734 94.8242H33.3008H57.3242L58.2227 94.375C59.4922 93.75 60.6641 92.5 61.1328 91.2695C61.4648 90.3906 61.5234 89.7461 61.5234 87.1484C61.5234 83.6133 61.3086 82.5 60.1953 80.3906C57.5391 75.332 49.3945 71.1719 39.9414 70.0586L37.8125 69.8242L39.2383 69.2578C42.207 68.1055 45.2148 65.5273 46.8555 62.7539C47.2852 62.0312 47.9297 60.5859 48.2812 59.5703C48.8867 57.793 48.9062 57.5977 48.9062 54.6875C48.9062 51.7773 48.8867 51.582 48.2812 49.8047C46.4648 44.5508 42.4609 40.8008 37.2266 39.4531C35.5859 39.043 31.8164 38.9453 30.1367 39.2578Z" fill="#D55CFF"/>
</svg>
