<svg width="100" height="100" viewBox="0 0 100 100" fill="none" xmlns="http://www.w3.org/2000/svg">
<path d="M61.0354 3.98436C57.9885 4.96092 55.801 7.49998 55.2737 10.664C55.1565 11.3086 55.0784 15.0586 55.0784 19.0039C55.0979 25.9179 55.0784 26.2109 54.7073 26.8359C54.0432 27.9101 52.4026 29.2773 51.0745 29.9219C49.7073 30.5469 49.3752 30.9375 49.551 31.6015C49.8049 32.6172 53.926 32.7148 56.2307 31.7773C56.9338 31.5039 57.5784 31.3281 57.6956 31.4062C57.8127 31.4648 58.2815 31.8164 58.7502 32.1679C59.1995 32.5195 60.1565 32.9883 60.8596 33.2031C62.1096 33.5742 62.637 33.5937 76.5432 33.5937C92.2073 33.5937 91.9729 33.6133 93.8674 32.5C95.0393 31.8164 96.6213 30.0586 97.2268 28.7695L97.7542 27.6367V18.6523V9.66795L97.1292 8.35936C96.3284 6.64061 94.9221 5.23436 93.2034 4.43357L91.8948 3.80857L76.8557 3.76951C65.0784 3.74998 61.6409 3.78904 61.0354 3.98436ZM88.0862 12.1094C88.7502 12.4609 88.9456 13.0469 88.5745 13.5937L88.2815 14.0625H76.5627H64.8635L64.5706 13.6328C64.1604 13.0469 64.1799 12.7734 64.6487 12.3047C65.0393 11.914 65.2932 11.914 76.387 11.914C83.7307 11.914 87.8518 11.9922 88.0862 12.1094ZM88.262 17.7734C88.4573 17.8711 88.6721 18.1054 88.7502 18.2617C88.8674 18.5937 88.5745 19.3359 88.2034 19.5703C88.0862 19.6484 82.8323 19.7265 76.5237 19.7265C65.2932 19.7265 65.0393 19.7265 64.6487 19.3359C64.1799 18.8672 64.1604 18.5937 64.5706 18.0078L64.8635 17.5781H76.387C83.4768 17.5781 88.0471 17.6562 88.262 17.7734ZM88.4963 23.6133C88.9651 24.1797 88.9651 24.2578 88.4963 24.8242L88.1252 25.2929L77.1096 25.3515C71.0745 25.3906 65.8206 25.3515 65.469 25.2929C64.6487 25.1367 64.1409 24.414 64.4534 23.8281C64.5706 23.5937 64.8635 23.3398 65.0979 23.2422C65.3323 23.1445 70.5471 23.0859 76.8167 23.1054L88.1252 23.1445L88.4963 23.6133Z" fill="#D55CFF"/>
<path d="M22.4414 24.1406C17.4023 25.0391 13.0664 27.3242 9.35547 31.0352C4.51172 35.8984 2.14844 41.6211 2.14844 48.5352C2.14844 51.4063 2.48047 53.6328 3.24219 56.0938C4.51172 60.1563 6.23047 62.8516 9.92187 66.6602C11.875 68.6719 12.7734 69.7266 13.1445 70.5273C13.7109 71.7383 14.043 73.0078 14.0625 73.9648V74.6094H26.8164H39.5508L39.7852 73.1641C40.1562 70.8203 40.918 69.5703 43.4766 67.0508C47.8516 62.7344 50.0781 58.8281 51.1914 53.457C51.7383 50.8984 51.7773 46.6016 51.2891 44.1016C49.3164 33.8281 41.543 26.0938 31.2695 24.1406C29.2578 23.75 24.5312 23.75 22.4414 24.1406Z" fill="#D55CFF"/>
<path d="M18.7116 78.3203C17.7741 78.5938 17.0514 79.1406 16.5436 79.9414C15.235 81.9336 15.8991 84.4922 17.9889 85.5469C18.6921 85.918 19.1803 85.9375 26.7585 85.9375C35.6061 85.9375 35.5671 85.9375 36.6608 84.707C38.3405 82.793 37.8327 79.7852 35.6452 78.6328C34.903 78.2422 34.5514 78.2227 27.0514 78.1836C22.7546 78.1641 19.0046 78.2227 18.7116 78.3203Z" fill="#D55CFF"/>
<path d="M20.997 88.7694C20.5673 88.9257 19.8837 89.3944 19.4931 89.8046C18.0087 91.4062 18.0673 93.7304 19.6494 95.2538C20.1376 95.7421 20.7626 96.1132 21.1337 96.1913C21.4853 96.2499 24.2978 96.289 27.3642 96.2499L32.9501 96.1913L33.6728 95.6249C35.0595 94.5702 35.6064 93.0468 35.1572 91.3866C34.8642 90.2929 33.5947 88.9843 32.5205 88.6913C31.3095 88.3593 21.9931 88.4179 20.997 88.7694Z" fill="#D55CFF"/>
</svg>
