<svg width="100" height="100" viewBox="0 0 100 100" fill="none" xmlns="http://www.w3.org/2000/svg">
<g clip-path="url(#clip0_302_4329)">
<path d="M83.457 0.410156C82.6562 0.917969 82.3047 1.71875 82.0508 3.71094C81.4844 8.125 78.3398 11.2305 73.9453 11.7188C71.1914 12.0312 70.4102 12.7344 70.4102 14.8828C70.4102 16.1328 70.4492 16.2305 71.1133 16.9141C71.7187 17.5195 71.9727 17.6367 73.2617 17.793C76.2109 18.2031 77.8125 18.8672 79.375 20.4102C81.0156 21.9922 81.6992 23.4766 82.1094 26.3477C82.3633 28.0273 82.4414 28.2422 83.0859 28.8867C83.7695 29.5508 83.8672 29.5898 85.1172 29.5898C87.2656 29.5898 87.9687 28.8086 88.2812 26.0547C88.7695 21.6406 91.8555 18.5352 96.2891 17.9492C97.207 17.832 98.2422 17.5977 98.5742 17.4414C100.449 16.5625 100.508 13.3398 98.6719 12.2656C98.3594 12.0703 97.3242 11.8359 96.3672 11.7188C91.9336 11.2305 88.7695 8.04688 88.2617 3.61328C88.0469 1.69922 87.6758 0.878906 86.7578 0.332031C85.9375 -0.136719 84.2578 -0.117188 83.457 0.410156Z" fill="#D55CFF"/>
<path d="M19.9216 26.3867C13.3395 27.1875 7.55827 30.6836 3.84733 36.0742C2.65593 37.832 1.21061 40.9766 0.644209 43.1055C-0.0393851 45.6836 -0.215166 50.3906 0.292646 53.0274C1.21061 57.9688 3.12468 61.4258 7.48015 65.9375C8.92546 67.4219 17.2067 75.6836 25.8786 84.2578L41.6403 99.8828L42.7536 99.961C43.5348 100.02 44.0622 99.9414 44.4528 99.7461C44.7653 99.5703 53.2028 91.2305 63.2028 81.2109C76.7966 67.5781 81.6012 62.6367 82.2653 61.6211C86.0348 55.8399 87.0895 49.1211 85.2341 42.5977C84.6481 40.4883 82.9294 37.0117 81.6598 35.3516C80.3512 33.6133 77.6364 31.0352 76.0348 30C73.3591 28.2813 70.3122 27.0703 67.3825 26.543C65.3122 26.1719 61.0153 26.2305 59.0231 26.6406C53.7887 27.7344 50.3903 29.7461 45.6247 34.5508L43.0856 37.0899L40.3122 34.3945C37.1091 31.2891 35.5661 30.0781 33.2223 28.8477C29.277 26.7578 24.277 25.8399 19.9216 26.3867Z" fill="#D55CFF"/>
</g>
<defs>
<clipPath id="clip0_302_4329">
<rect width="100" height="100" fill="white"/>
</clipPath>
</defs>
</svg>
