<svg width="120" height="120" viewBox="0 0 120 120" fill="none" xmlns="http://www.w3.org/2000/svg">
<path d="M59.3665 17.1093C51.1634 17.9531 44.2025 24.2812 42.515 32.414C41.9994 34.8281 42.0462 38.6718 42.6322 41.0859C44.8587 50.5078 53.765 56.789 63.4681 55.8047C66.9369 55.4297 68.8119 54.7734 71.9056 52.8047C76.0072 50.1797 79.054 45.9609 80.2494 41.25C82.1244 33.8672 79.429 25.8047 73.4994 21.1875C69.515 18.0468 64.4525 16.5937 59.3665 17.1093Z" fill="#E292FE"/>
<path d="M22.4531 54.3516C15.4922 56.5781 13.2422 65.0391 18.2109 70.3359C20.0156 72.2578 22.4765 73.3594 25.0078 73.3594H26.25L27.0468 71.7422C28.3593 69.1641 30.9843 65.4375 33.0468 63.2109L34.9687 61.1719L34.2656 59.6719C32.1328 55.1016 27.1406 52.8516 22.4531 54.3516Z" fill="#E292FE"/>
<path d="M95.3203 54.1406C92.3906 54.8906 89.9062 57.1406 88.7812 60.0703L88.3359 61.2188L89.9062 62.8594C92.1797 65.2734 94.2656 68.2031 95.7422 71.0625L97.0547 73.5938H98.2031C99.75 73.5938 102.094 72.8203 103.453 71.8594C109.594 67.5 108.68 58.0078 101.812 54.7969C100.547 54.2109 99.9141 54.0703 98.25 54C97.125 53.9531 95.8125 54.0234 95.3203 54.1406Z" fill="#E292FE"/>
<path d="M48.7491 56.3437C47.0616 56.9765 43.4054 58.9453 41.3663 60.3047C38.4601 62.2734 34.2647 66.5156 32.2726 69.4922C28.6397 74.9765 26.6241 81.0468 26.3194 87.3984C26.2257 89.6718 26.2726 90.3047 26.6241 91.3593C27.5147 93.8437 29.5772 95.7422 33.3976 97.6172C37.6163 99.7031 42.1632 100.969 48.8663 101.93C68.3663 104.766 90.6788 100.57 95.6007 93.1406C96.6788 91.5 96.8663 90.5156 96.7257 87.3047C96.1397 74.0156 87.796 62.0156 75.5147 56.8359L73.5694 56.0156L71.4132 57.0703C67.8741 58.7812 65.9522 59.1797 61.4054 59.1797C56.9288 59.1797 55.2179 58.8047 51.796 57.1172C50.6944 56.5781 49.7569 56.1093 49.6866 56.0859C49.6163 56.0625 49.1944 56.1797 48.7491 56.3437Z" fill="#E292FE"/>
<path d="M14.3203 73.1251C8.10938 76.0782 4.00781 82.3126 3.98438 88.8282C3.98438 90.3047 4.07812 90.7266 4.54688 91.4063C5.64844 93.0235 8.90625 94.5235 13.125 95.3907C15.8672 95.9532 21.1406 96.3282 23.625 96.1407L25.3359 96.0235L23.6016 94.2422C20.5312 91.0782 19.7578 89.0391 20.0156 84.7266C20.1797 81.7266 20.625 78.9844 21.4219 76.1251L21.9844 74.1094L20.4141 73.8282C19.5703 73.6876 18.2344 73.3126 17.4375 72.9844C16.6641 72.6797 15.9844 72.4219 15.9141 72.4219C15.8672 72.4219 15.1406 72.7501 14.3203 73.1251Z" fill="#E292FE"/>
<path d="M102.562 75.8672C101.812 76.1719 100.547 76.5469 99.7734 76.6641C98.9766 76.8047 98.2969 76.9219 98.2734 76.9688C98.2266 77.0156 98.3438 77.4609 98.5312 78C99.6797 81.2578 100.547 88.2422 100.102 90.75C99.6797 93.1406 98.625 95.0156 96.5156 97.0781L94.6641 98.9062H96.9609C105.68 98.9062 113.883 96.7969 115.547 94.1016C116.414 92.6953 116.062 88.7812 114.797 85.5469C113.32 81.8203 109.898 77.9766 106.477 76.2188C105.445 75.6797 104.438 75.2578 104.25 75.2578C104.086 75.2812 103.336 75.5391 102.562 75.8672Z" fill="#E292FE"/>
</svg>
