<svg width="100" height="100" viewBox="0 0 100 100" fill="none" xmlns="http://www.w3.org/2000/svg">
<path d="M47.5588 6.36726C40.8791 7.46101 35.508 12.5196 34.1603 19.0235C32.051 29.2579 40.2736 38.8282 50.6838 38.2227C53.1252 38.0665 55.0392 37.5391 57.3244 36.3673C58.7697 35.6251 59.4338 35.1173 61.0549 33.5157C62.676 31.8946 63.1642 31.2305 63.926 29.7657C65.3322 27.0118 65.7033 25.4102 65.7033 22.2657C65.7033 19.1212 65.3322 17.5196 63.926 14.7657C63.1642 13.3008 62.676 12.6368 61.0549 11.0157C59.4338 9.41413 58.7697 8.90632 57.3244 8.16413C54.8439 6.8946 53.1252 6.44538 50.3908 6.34772C49.1603 6.30866 47.8908 6.32819 47.5588 6.36726Z" fill="#D55CFF"/>
<path d="M32.0322 38.0274C25.9189 38.4571 20.8017 41.6602 18.165 46.6798C16.8955 49.1212 16.3877 51.211 16.2705 54.3946C16.0752 59.4923 17.4228 64.5313 20.4111 69.9219C23.8681 76.1329 29.1611 81.2891 38.3798 87.4415C43.9463 91.1329 46.0556 92.129 48.8877 92.3243C52.1103 92.5391 54.3955 91.8165 58.5947 89.1798C67.7353 83.4571 74.2392 77.7149 77.7744 72.2657C81.3095 66.8165 83.1259 61.6016 83.3408 56.3087C83.458 53.3204 83.2627 51.4258 82.5791 49.336C80.1572 41.7969 72.8525 37.2657 64.4931 38.1055C60.9775 38.4766 57.8134 39.8047 54.5517 42.3047C52.3252 44.0235 51.2705 44.4141 49.415 44.2969C47.7939 44.1798 46.8564 43.7305 44.9228 42.1876C42.1103 39.9219 38.5556 38.4571 34.9619 38.086C33.8681 37.9883 32.9502 37.9102 32.9306 37.9297C32.9306 37.9493 32.5205 37.9883 32.0322 38.0274Z" fill="#D55CFF"/>
</svg>
