<svg width="100" height="100" viewBox="0 0 100 100" fill="none" xmlns="http://www.w3.org/2000/svg">
<path d="M49.0236 2.49987L48.5353 2.8905L48.4376 16.6405L48.34 30.371L46.6408 30.5077C35.7814 31.328 25.1564 37.5585 18.9455 46.7577C17.8126 48.4569 17.6955 49.16 18.4572 49.9022C19.3751 50.8397 20.2345 50.4686 21.5236 48.5741C24.883 43.5741 29.7853 39.3749 35.2541 36.7967C50.3517 29.6874 68.4572 34.3944 78.008 47.91C79.4337 49.9608 79.9025 50.3905 80.6251 50.3905C81.2697 50.3905 82.0314 49.5507 82.0314 48.828C82.0314 48.1053 80.7228 46.0936 78.6134 43.5741C72.4025 36.1717 62.8322 31.2303 53.3595 30.5077L51.6603 30.371V24.8241V19.2577L57.5197 15.8788C60.7423 14.0233 63.5744 12.285 63.8283 12.0116C64.0626 11.7186 64.258 11.2889 64.258 11.035C64.258 10.7811 64.0626 10.3514 63.8283 10.078C63.2228 9.43346 50.84 2.32409 50.0978 2.2069C49.6876 2.14831 49.3556 2.22643 49.0236 2.49987Z" fill="#D55CFF"/>
<path d="M47.9498 41.1914C43.399 41.9336 39.5904 44.5703 37.3638 48.4766C34.981 52.6562 34.8834 57.9883 37.1099 62.2656C38.6138 65.1758 40.7232 67.2266 43.6529 68.6523C45.8013 69.6875 47.6568 70.1172 50.0006 70.1172C52.3443 70.1172 54.1998 69.6875 56.3482 68.6523C59.2779 67.2266 61.3873 65.1758 62.8912 62.2656C65.1177 57.9883 65.0201 52.6562 62.6373 48.4766C60.7427 45.1172 57.5396 42.6172 53.8873 41.6016C52.2662 41.1523 49.3951 40.957 47.9498 41.1914Z" fill="#D55CFF"/>
<path d="M20.8203 56.9335C16.2695 58.1835 13.0859 62.3242 13.0859 66.9921C13.0859 69.8828 14.1211 72.3437 16.2109 74.414C18.2812 76.4843 20.5469 77.4023 23.5352 77.3828C27.207 77.3632 30.1953 75.7031 32.2461 72.5781C34.8438 68.6132 34.2188 63.0273 30.7812 59.6679C29.4336 58.3398 27.7539 57.3828 26.0742 56.9335C24.6875 56.582 22.1289 56.582 20.8203 56.9335Z" fill="#D55CFF"/>
<path d="M73.7299 57.0117C70.1752 58.0274 67.3041 60.9961 66.4252 64.5508C66.0541 66.0547 66.1322 68.6328 66.5814 70.1367C67.558 73.2617 70.2729 75.9766 73.4369 76.9727C75.3119 77.5586 77.9877 77.5391 79.8041 76.9141C84.14 75.4102 86.9135 71.5235 86.9135 66.9922C86.8939 62.2461 83.7299 58.1641 79.101 56.9336C77.6752 56.543 75.1752 56.582 73.7299 57.0117Z" fill="#D55CFF"/>
<path d="M47.4417 72.2656C34.6487 73.4765 24.219 82.8711 21.7581 95.4101C21.2112 98.164 17.5393 97.8515 50.0003 97.8515C82.4807 97.8515 78.7893 98.1836 78.2424 95.3515C76.5432 86.7187 70.7815 79.1601 62.8323 75.1562C58.3792 72.9297 52.3831 71.7969 47.4417 72.2656Z" fill="#D55CFF"/>
<path d="M20.5078 79.6289C17.3047 80.1172 14.0039 81.4648 11.4258 83.3008C9.76562 84.4727 7.08984 87.3438 6.01562 89.0625C4.55078 91.4062 3.125 95.2344 3.125 96.7969C3.125 97.8516 3.125 97.8516 11.0156 97.8516H18.3008L18.418 96.5234C18.8281 91.8164 21.6406 85.2148 25 81.1133C25.625 80.3516 26.0938 79.668 26.0352 79.6094C25.8984 79.4922 21.3281 79.4922 20.5078 79.6289Z" fill="#D55CFF"/>
<path d="M73.9851 79.5898C73.907 79.668 74.3757 80.3516 75.0007 81.1133C78.3601 85.2148 81.1726 91.8164 81.5827 96.5234L81.6999 97.8516H88.9851C96.8757 97.8516 96.8757 97.8516 96.8757 96.7969C96.8757 95.0781 95.2937 91.0352 93.6726 88.5742C92.3445 86.6016 89.2585 83.6133 87.3445 82.4805C83.9265 80.4492 81.3093 79.707 77.1491 79.5508C75.489 79.4922 74.0632 79.5117 73.9851 79.5898Z" fill="#D55CFF"/>
</svg>
